<svg width="22" height="30" viewBox="0 0 22 30" fill="none" xmlns="http://www.w3.org/2000/svg">
<g clip-path="url(#clip0)">
<path d="M21.48 23.73L15.57 2.05C15.37 1.33 14.91 0.739995 14.26 0.369995C13.61 -4.55976e-06 12.86 -0.100005 12.15 0.0999954L2.04999 2.85C0.569993 3.26 -0.310007 4.79 0.099993 6.27L6.00999 27.94C6.34999 29.18 7.46999 30 8.69999 30C8.93999 30 9.18999 29.97 9.42999 29.9L19.52 27.15C20.24 26.95 20.83 26.49 21.2 25.84C21.58 25.19 21.68 24.44 21.48 23.73ZM2.35999 3.97L12.45 1.22C12.59 1.18 12.73 1.16 12.88 1.16C13.16 1.16 13.44 1.23 13.69 1.38C14.07 1.6 14.34 1.95 14.46 2.36L19.12 19.44L5.86999 23.05L1.20999 5.97C0.969993 5.1 1.48999 4.2 2.35999 3.97ZM20.21 25.27C19.99 25.65 19.64 25.92 19.23 26.04L9.12999 28.79C8.25999 29.03 7.35999 28.51 7.12999 27.64L6.17999 24.16L19.42 20.55L20.37 24.03C20.48 24.45 20.43 24.89 20.21 25.27Z" fill="#023F85"/>
<path d="M10.91 3.92C11.22 3.84 11.4 3.52 11.31 3.21C11.23 2.9 10.91 2.72 10.6 2.81L4.75999 4.41C4.44999 4.49 4.26999 4.81 4.35999 5.12C4.42999 5.38 4.65999 5.55 4.91999 5.55C4.96999 5.55 5.01999 5.54 5.06999 5.53L10.91 3.92Z" fill="#023F85"/>
<path d="M13.08 23.41C12.22 23.64 11.71 24.53 11.95 25.39C12.18 26.25 13.07 26.76 13.93 26.52C14.79 26.29 15.3 25.4 15.06 24.54C14.83 23.69 13.94 23.18 13.08 23.41ZM13.65 25.49C13.36 25.57 13.07 25.4 12.99 25.11C12.91 24.82 13.08 24.53 13.37 24.45C13.66 24.37 13.95 24.54 14.03 24.83C14.11 25.11 13.94 25.41 13.65 25.49Z" fill="#023F85"/>
<path d="M8.06998 8.09999C7.67998 8.22999 7.31998 8.35999 7.54998 9.07999L9.96998 16.65L9.33998 16.86C9.03998 16.95 8.87998 17.28 8.96998 17.58C9.05998 17.88 9.38998 18.04 9.68998 17.95L10.31 17.75L10.48 18.28C10.66 18.84 10.94 18.84 11.21 18.75C11.36 18.7 11.85 18.66 11.71 18.21L11.45 17.39L12.14 17.17C12.44 17.08 12.6 16.75 12.51 16.45C12.42 16.15 12.09 15.99 11.79 16.08L11.11 16.3L10.92 15.7C11.41 15.55 12.32 15.16 12.77 14.58C13.48 13.69 13.6 12.3 13.12 10.79C12.32 8.21999 10.05 7.47999 8.06998 8.09999ZM12.04 11.54C12.36 12.54 12.47 14.23 10.54 14.84C9.94998 12.98 9.41998 11.26 8.83998 9.39999C8.79998 9.28999 8.73998 9.19999 8.70998 9.10999C8.69998 9.07999 8.70998 9.04999 8.70998 9.00999C9.24998 8.84999 11.14 8.67999 12.04 11.54Z" fill="#023F85"/>
</g>
<defs>
<clipPath id="clip0">
<rect width="21.58" height="30" fill="white"/>
</clipPath>
</defs>
</svg>
