<svg width="159" height="48" viewBox="0 0 159 48" fill="none" xmlns="http://www.w3.org/2000/svg">
<path d="M8.37683 9.84655L156.933 7.86478L150.795 37.5408L1.8559 36.8365L8.37683 9.84655Z" fill="white"/>
<path d="M22.8823 22.7048C22.8823 22.6418 23.0083 18.3998 22.9453 18.3998C22.8193 18.3998 23.8063 18.3578 24.8143 18.3578L26.8723 18.3158L26.9563 16.3838L20.8243 16.2578L20.7193 24.7208L23.4913 24.8468C23.7433 24.8888 23.9743 24.9518 24.1843 25.0358C24.5203 25.2038 24.8773 25.4558 24.8983 26.0228C24.9193 26.5898 24.9193 27.0728 24.9193 27.4718C24.9193 27.7028 24.9193 27.8918 24.8983 28.0808C24.8773 28.2698 24.8143 28.4378 24.7513 28.5848C24.6043 28.8368 24.3943 29.1098 23.9743 29.1308L22.0633 29.2148L20.7823 29.2778L20.8663 31.3778L24.5833 31.1048C25.0453 31.0418 25.4653 30.8738 25.8433 30.6428C26.4523 30.2438 27.1453 29.5508 27.2083 28.2278C27.3133 25.6658 27.1873 25.0778 27.1873 24.9098C27.1243 24.6368 26.4523 22.9988 25.0873 22.8308C24.2893 22.7258 22.9243 22.7048 22.8823 22.7048ZM29.8307 28.5218C29.7677 29.8028 30.1457 30.7478 31.4897 30.9788C31.9727 30.9788 32.4347 30.9788 32.8967 30.9998C33.6737 31.0208 34.5557 31.0418 35.1227 31.0208C36.0257 31.0208 36.6557 30.1178 36.6557 29.2358L36.6977 24.5108C36.6977 22.0538 36.7397 19.2818 36.7397 18.3578C36.7397 17.4128 36.2777 16.8878 35.8367 16.6148C35.5637 16.4678 35.2697 16.3628 34.9337 16.2998L33.9467 16.2578C33.3377 16.2368 32.5187 16.2368 31.6157 16.2578C30.7127 16.2788 30.2927 16.8038 30.0617 17.3078C29.9357 17.6018 29.8727 17.9378 29.8517 18.3158L29.8307 28.5218ZM31.6997 18.9878C31.6367 18.4628 31.9097 18.2318 32.3927 18.1478C32.6657 18.1688 32.9177 18.1688 33.1697 18.1688H34.2197C34.3877 18.1688 34.5137 18.2948 34.5767 18.3998C34.6187 18.4628 34.6607 18.5468 34.6817 18.6308L34.7657 23.3138C34.8287 25.7078 34.7867 28.1858 34.7867 28.5008C34.7237 28.8368 34.5977 28.9838 34.4297 29.0468C34.3247 29.0888 34.2197 29.1098 34.1147 29.0888L33.4007 29.1308C33.0017 29.1518 32.6027 29.1518 32.3717 29.1308C32.1407 29.1098 32.0357 28.9628 31.9727 28.8158C31.9307 28.7318 31.9097 28.6478 31.9097 28.5428L31.6997 18.9878ZM40.4193 30.9788V28.1228H38.5923V26.7578H40.4193V24.8888H38.5923V23.2928H40.4193V15.9848H44.3673C46.2013 15.9848 47.5593 16.3558 48.4413 17.0978C49.3373 17.8398 49.7853 18.9178 49.7853 20.3318C49.7853 21.7598 49.3023 22.8798 48.3363 23.6918C47.3703 24.4898 45.9493 24.8888 44.0733 24.8888H42.3093V26.7578H45.7743V28.1228H42.3093V30.9788H40.4193ZM42.3093 23.2928H43.8003C45.0743 23.2928 46.0613 23.0828 46.7613 22.6628C47.4753 22.2428 47.8323 21.4868 47.8323 20.3948C47.8323 19.4428 47.5383 18.7358 46.9503 18.2738C46.3623 17.8118 45.4453 17.5808 44.1993 17.5808H42.3093V23.2928ZM58.59 31.0208C58.527 31.0838 58.989 31.0628 59.43 30.9998L60.333 30.8948L60.459 25.3088L62.433 25.4348L62.874 30.8108L64.617 30.7688L64.659 16.1738H63.147L62.517 23.7128L60.291 23.5868L59.892 16.4888C59.619 16.4888 59.346 16.4888 59.115 16.4678C58.716 16.4678 58.296 16.4468 58.233 16.4468C58.107 16.4468 58.674 30.9368 58.59 31.0208ZM71.3682 16.3628C70.4652 16.2998 68.5332 16.2998 67.4412 16.2998L66.1602 30.9788H67.9662C68.2812 28.8998 68.3232 26.9048 68.7222 25.3088L70.5282 25.5818C70.8642 26.6948 71.1372 29.6558 71.3052 30.9788H73.1112L71.3682 16.3628ZM70.3602 23.7338L68.9532 23.5658L69.1632 19.1978L69.7722 19.2188L70.3602 23.7338ZM83.231 18.3578V30.9998H85.289C85.289 26.8208 85.037 22.4948 85.037 18.1058H88.124V17.8328C88.124 17.5808 88.082 17.2028 88.061 16.8878L88.019 16.3208L80.69 16.1948C80.627 16.5938 80.648 17.9798 80.648 18.3578H83.231ZM89.7799 30.9788H96.0799V29.4038H91.8169C91.7959 28.5848 91.6069 27.3248 91.6069 26.5058V26.2538L95.5549 25.7288V24.1538H91.6069C91.5439 23.5658 91.2499 19.2608 91.3549 17.8538H96.0799V16.2788C93.9799 16.2788 91.5859 16.1738 89.4859 16.2788L89.7799 30.9788ZM98.9276 31.0208C100.524 31.0208 102.372 28.9628 102.477 26.9678L102.519 18.1478H104.661L104.703 31.1468H106.887L106.488 16.2158L100.545 16.2578C100.545 17.9798 100.545 19.5758 100.566 21.0248C100.566 23.5028 100.587 26.1698 100.587 26.9048C100.587 28.4168 99.3686 29.1938 98.5286 29.1938L97.4156 29.2358L97.2896 31.0628L98.9276 31.0208ZM108.76 30.9788H115.06V29.4038H110.797C110.776 28.5848 110.587 27.3248 110.587 26.5058V26.2538L114.535 25.7288V24.1538H110.587C110.524 23.5658 110.23 19.2608 110.335 17.8538H115.06V16.2788C112.96 16.2788 110.566 16.1738 108.466 16.2788L108.76 30.9788ZM124.67 21.1718C124.67 19.6388 123.536 18.6518 121.688 18.8828L121.625 16.2998H119.63L119.588 19.0718C119.189 19.0508 117.824 19.1138 117.53 19.2188C117.005 19.4078 116.501 19.8488 116.501 20.8568V25.3718C116.48 25.8548 116.522 26.2958 116.669 26.6738C116.9 27.3248 118.454 27.9758 119.63 27.9548L119.567 29.4458C119.546 29.8448 119.525 30.2018 119.525 30.4748C119.504 30.6218 119.504 30.7898 119.504 30.9368C119.567 30.9368 120.008 30.9578 120.428 30.9788L121.268 31.0208L121.478 27.9548C121.877 28.0178 123.2 27.9758 123.515 27.8288C124.04 27.6188 124.628 26.8628 124.628 25.3298C124.691 22.1588 124.67 21.2348 124.67 21.1718ZM119.672 26.0228C119.525 26.1698 118.496 26.1488 118.475 25.9388C118.454 25.8338 118.454 21.1298 118.454 21.1298C118.706 21.0248 119.525 21.0038 119.609 21.0878C119.714 21.2138 119.672 25.7498 119.672 26.0228ZM122.654 25.9598C122.612 26.0438 122.549 26.1068 122.465 26.1488C122.423 26.1908 121.625 26.1488 121.625 26.0648C121.625 25.9388 121.73 21.0458 121.751 21.0248C121.751 21.0248 122.612 20.8778 122.675 21.1928C122.717 21.4028 122.717 21.6128 122.717 21.8018C122.717 22.0748 122.759 25.7918 122.654 25.9598ZM132.244 16.6148C131.971 16.4678 131.677 16.3628 131.341 16.2998L130.354 16.2578C129.745 16.2368 128.926 16.2368 128.023 16.2578C127.12 16.2788 126.7 16.8038 126.469 17.3078C126.343 17.6018 126.28 17.9378 126.259 18.3158L126.238 28.5218C126.175 29.8028 126.553 30.7478 127.897 30.9788C128.38 30.9788 128.842 30.9788 129.304 30.9998C130.081 31.0208 130.963 31.0418 131.53 31.0208C132.433 31.0208 133.063 30.1178 133.063 29.2358L133.105 24.5108C133.105 22.0538 133.147 19.2818 133.147 18.3578C133.147 17.4128 132.685 16.8878 132.244 16.6148ZM131.194 28.1648C131.152 28.3958 131.11 28.6058 131.047 28.7948C130.879 29.1098 130.396 29.3828 129.724 29.3828C128.338 29.3828 128.233 29.1938 128.233 28.1858C128.233 27.7238 128.275 18.9878 128.275 18.6728C128.275 17.6648 128.359 17.4758 129.745 17.4758C130.438 17.4758 130.795 17.5178 130.963 17.8328C131.026 18.0218 131.047 18.4838 131.068 18.7148C131.068 18.7148 131.152 20.3528 131.152 22.9148C131.152 25.0148 131.194 28.1648 131.194 28.1648ZM135.184 31.0208C135.121 31.0838 135.583 31.0628 136.024 30.9998L136.927 30.8948L137.053 25.3088L139.027 25.4348L139.468 30.8108L141.211 30.7688L141.253 16.1738H139.741L139.111 23.7128L136.885 23.5868L136.486 16.4888C136.213 16.4888 135.94 16.4888 135.709 16.4678C135.31 16.4678 134.89 16.4468 134.827 16.4468C134.701 16.4468 135.268 30.9368 135.184 31.0208Z" fill="#004F91"/>
</svg>
