<svg width="139" height="86" viewBox="0 0 139 86" fill="none" xmlns="http://www.w3.org/2000/svg">
<path d="M34.2664 10.6599L111.787 7.641L109.731 37.3206L28.8999 37.7808L34.2664 10.6599Z" fill="white"/>
<path d="M47.0709 30.73C47.0079 30.793 47.4699 30.772 47.9109 30.709L48.8139 30.604L48.9399 25.018L50.9139 25.144L51.3549 30.52L53.0979 30.478L53.1399 15.883H51.6279L50.9979 23.422L48.7719 23.296L48.3729 16.198C48.0999 16.198 47.8269 16.198 47.5959 16.177C47.1969 16.177 46.7769 16.156 46.7139 16.156C46.5879 16.156 47.1549 30.646 47.0709 30.73ZM60.7941 16.324C60.5211 16.177 60.2271 16.072 59.8911 16.009L58.9041 15.967C58.2951 15.946 57.4761 15.946 56.5731 15.967C55.6701 15.988 55.2501 16.513 55.0191 17.017C54.8931 17.311 54.8301 17.647 54.8091 18.025L54.7881 28.231C54.7251 29.512 55.1031 30.457 56.4471 30.688C56.9301 30.688 57.3921 30.688 57.8541 30.709C58.6311 30.73 59.5131 30.751 60.0801 30.73C60.9831 30.73 61.6131 29.827 61.6131 28.945L61.6551 24.22C61.6551 21.763 61.6971 18.991 61.6971 18.067C61.6971 17.122 61.2351 16.597 60.7941 16.324ZM59.7441 27.874C59.7021 28.105 59.6601 28.315 59.5971 28.504C59.4291 28.819 58.9461 29.092 58.2741 29.092C56.8881 29.092 56.7831 28.903 56.7831 27.895C56.7831 27.433 56.8251 18.697 56.8251 18.382C56.8251 17.374 56.9091 17.185 58.2951 17.185C58.9881 17.185 59.3451 17.227 59.5131 17.542C59.5761 17.731 59.5971 18.193 59.6181 18.424C59.6181 18.424 59.7021 20.062 59.7021 22.624C59.7021 24.724 59.7441 27.874 59.7441 27.874ZM65.246 23.926L63.083 30.688L65.036 30.982L69.614 16.198L67.934 16.009L66.212 20.818L64.742 15.757L63.083 16.051L65.246 23.926ZM73.3936 18.067V30.709H75.4516C75.4516 26.53 75.1996 22.204 75.1996 17.815H78.2866V17.542C78.2866 17.29 78.2446 16.912 78.2236 16.597L78.1816 16.03L70.8526 15.904C70.7896 16.303 70.8106 17.689 70.8106 18.067H73.3936ZM85.7385 24.829C85.7175 23.989 85.4025 23.506 85.0875 23.191C84.8985 23.023 84.7095 22.897 84.4785 22.813C83.7225 22.666 82.8615 22.603 81.7905 22.666C81.7695 21.154 81.6855 19.726 81.8325 17.857C83.4915 18.004 84.5625 17.92 85.7385 17.899L85.6965 15.883C83.9325 15.82 82.0845 15.778 79.8795 15.925L79.6485 30.688H84.2055C84.8985 30.688 85.2975 30.31 85.5285 29.911C85.6545 29.68 85.7385 29.407 85.7805 29.113V27.601C85.7805 26.74 85.7595 25.69 85.7385 24.829ZM83.7225 28.924C83.3445 29.239 81.7485 29.281 81.7485 29.155C81.7485 28.63 81.8745 24.472 81.8955 24.43C81.9795 24.346 82.6935 24.325 82.9035 24.367C83.1345 24.409 83.3445 24.472 83.5335 24.577C83.9115 24.766 83.8905 25.06 83.9745 25.396C84.0375 25.711 84.2685 28.462 83.7225 28.924ZM89.3075 23.926L87.1445 30.688L89.0975 30.982L93.6755 16.198L91.9955 16.009L90.2735 20.818L88.8035 15.757L87.1445 16.051L89.3075 23.926ZM95.0401 16.051L95.2081 30.814H97.0561L97.0981 24.43L99.9961 30.772L101.655 29.47L98.1901 23.338L101.97 17.29L100.773 15.841L96.9721 22.015L96.8881 15.715L95.0401 16.051Z" fill="#004F91"/>
<path d="M126.053 76.74L3.0111 58.6354L12.1961 30.0932L135.182 50.9081L126.053 76.74Z" fill="#FFF021"/>
<path d="M22.5123 40.7721C21.7501 45.4356 21.1945 50.2788 20.5808 55.368L22.45 55.648L24.3507 42.9585L28.4836 43.5776C28.6081 43.1716 28.7626 42.2816 28.8466 41.7209L22.5123 40.7721ZM27.5522 56.4547C29.1305 56.6911 31.263 54.9296 31.6624 52.9721L33.0105 44.2557L35.1288 44.573L33.2448 57.4348L35.4047 57.7583L37.2219 42.9329L31.3382 42.0941C31.0831 43.7971 30.8467 45.3755 30.6528 46.8116C30.2858 49.2623 29.9114 51.903 29.8026 52.6299C29.5786 54.1252 28.2589 54.7132 27.4282 54.5887L26.3213 54.4654L25.926 56.2536L27.5522 56.4547ZM44.2038 44.1274C43.3201 43.9313 41.4094 43.6451 40.3294 43.4833L36.8881 57.8106L38.6742 58.0782C39.2937 56.0688 39.6307 54.102 40.2617 52.5827L42.0074 53.1202C42.1748 54.2707 42.0062 57.2395 41.9763 58.5728L43.7624 58.8403L44.2038 44.1274ZM42.115 51.2677L40.7484 50.8931L41.6031 46.6044L42.2023 46.7154L42.115 51.2677ZM52.2464 53.2737C51.9982 53.0878 51.723 52.9404 51.3793 52.8253L48.8288 51.8487C48.971 51.8912 49.1372 51.9161 49.3449 51.9472C49.6979 52.0001 50.2171 52.0779 50.9741 52.1276C51.7104 52.1741 52.2378 51.9134 52.5545 51.6423C52.7278 51.4772 52.8835 51.2881 53.0008 51.0721L53.2311 49.96C53.3546 49.2777 53.4945 48.3432 53.5639 47.3131C53.6094 46.3006 53.0994 45.7359 52.5729 45.4234C52.2624 45.2283 51.8979 45.11 51.4794 45.0685C50.2426 44.8196 48.8595 44.6973 47.5231 44.6883C46.6549 49.2085 45.9612 53.8399 45.5501 59.2779L47.4109 59.4717C48.4379 59.5619 49.5832 59.7122 50.3195 59.7588C51.0079 59.8407 51.416 59.6682 51.6371 59.4677C51.7596 59.3587 51.8645 59.2258 51.907 59.0835C52.0325 58.529 52.155 57.9952 52.2981 57.4646C52.5181 56.5632 52.7422 55.4926 52.9133 54.775C53.0845 54.0575 52.6867 53.5944 52.2464 53.2737ZM49.7371 45.7843C49.7579 45.7874 49.761 45.7667 49.7818 45.7698C50.3165 45.7437 51.0061 46.1018 50.9574 46.7103C50.9502 46.9003 50.7055 48.8172 50.5717 49.2856C50.4773 49.6324 50.1586 50.2005 49.7568 50.3314C49.5574 50.3865 49.0143 50.3264 49.0143 50.3264C49.0143 50.3264 49.7164 45.7812 49.7371 45.7843ZM49.9448 55.8805C49.8681 56.2512 49.7705 56.6188 49.673 56.9864C49.5693 57.3956 49.4385 57.8431 49.178 58.1651C48.9205 58.4663 47.8437 58.2837 47.8437 58.2837C47.8437 58.2837 48.2634 54.2059 48.5477 53.4416C48.5747 53.4032 49.4439 53.5546 49.662 53.7996C50.1304 54.3582 50.0683 55.1982 49.9448 55.8805ZM54.1242 60.4348C54.0525 60.4878 54.5126 60.5355 54.958 60.5385L55.8666 60.5684L56.8187 55.0627L58.7523 55.4797L58.392 60.8618L60.122 61.0784L62.3256 46.6507L60.8303 46.4267L59.0904 53.7892L56.9077 53.3348L57.5645 46.256C57.2945 46.2156 57.0245 46.1752 56.7992 46.1202C56.4046 46.0611 55.9923 45.9781 55.93 45.9687C55.8054 45.9501 54.2197 60.3642 54.1242 60.4348ZM68.6428 56.4304C68.6302 56.0887 68.5492 55.7793 68.4204 55.5052C68.1742 55.0224 67.7411 54.5116 66.8273 54.3747C65.9135 54.2379 65.4534 54.1902 65.2219 54.1767C65.0734 54.1757 65.0111 54.1664 64.9872 54.1841L65.9234 47.0834L63.993 47.0703L61.7479 61.4918L65.5963 62.0258C65.9971 62.0434 66.3834 62.0163 66.7375 61.9207C67.3324 61.7762 67.9107 61.4594 68.0819 60.7418C68.2116 60.0181 68.3494 58.9558 68.4624 58.0596L68.6428 56.4304ZM65.9989 60.4723C65.5784 60.7278 63.9969 60.5122 64.0124 60.4083C64.0933 59.8684 64.8307 55.7957 64.8577 55.7572C64.9532 55.6866 65.6625 55.7716 65.8639 55.8443C66.0862 55.92 66.2845 56.0134 66.459 56.1245C66.8048 56.3674 66.7374 56.6758 66.7707 57.0205C66.7863 57.3414 66.6073 60.0963 65.9989 60.4723ZM73.6441 48.5584L71.345 48.1715L69.5236 62.7415L71.5236 62.9986L73.6441 48.5584ZM79.9471 64.2603L82.3085 49.7713L80.3438 49.5619L76.0562 58.6237L77.3261 48.7277L75.2535 48.672L73.3387 63.4403L75.4695 63.6746L79.425 55.4124L77.8225 63.9845L79.9471 64.2603ZM82.0369 46.9064L81.1519 45.5847L78.875 46.7513L76.7283 44.9221L76.0089 46.322L78.9014 48.9849L82.0369 46.9064ZM91.4998 53.1228L94.9235 53.6568C94.0813 58.2872 93.3782 62.5561 92.7601 66.5405L94.4901 66.7572L96.6937 52.3294L90.0851 51.0847C89.9605 51.0661 88.3748 65.4802 88.2793 65.5508C88.2077 65.6038 88.6677 65.6515 89.1131 65.6545L90.0217 65.6844L91.4998 53.1228ZM104.304 54.8495C104.431 52.2992 100.282 52.2087 98.2929 52.1655L96.6169 66.7572L98.3614 67.0185L99.1858 61.5149C100.423 61.7639 103.17 61.2836 103.591 59.6055C103.994 58.052 104.23 56.4736 104.304 54.8495ZM101.931 58.3587C101.798 58.6786 101.772 58.9932 101.37 59.1241C101.171 59.1792 100.954 59.2104 100.719 59.2177C100.505 59.2281 99.8021 59.1016 99.7315 59.0061C99.7169 58.9614 100.205 54.8514 100.286 54.3114C100.302 54.2076 101.877 54.4648 102.204 54.8323C102.676 55.3701 102.04 58.0565 101.931 58.3587ZM110.757 68.8752L113.118 54.3861L111.153 54.1768L106.866 63.2386L108.136 53.3426L106.063 53.2869L104.148 68.0552L106.279 68.2894L110.235 60.0272L108.632 68.5994L110.757 68.8752ZM118.51 63.5813C119.176 63.5324 119.54 63.226 119.738 62.8947C119.852 62.6994 119.928 62.4772 119.983 62.2519C120.094 61.6527 120.184 61.0504 120.275 60.4481C120.427 59.4305 120.614 58.1844 120.688 57.2612C120.76 56.3589 120.285 55.8419 119.758 55.5294C119.466 55.3581 119.101 55.2398 118.707 55.1807L114.615 54.9926L114.465 56.5627L115.994 56.7067C116.813 56.7657 117.727 56.9026 118.166 56.9471C118.581 57.0094 118.82 57.2575 118.952 57.5108C119.034 57.6717 119.075 57.8265 119.115 57.9812C119.142 57.9427 119.157 57.9874 119.159 58.1151C119.187 58.3529 119.109 58.8721 118.985 60.1275C118.86 61.383 118.123 61.9096 117.433 62.1247C117.031 62.2556 116.579 62.2941 116.099 62.2433L115.917 64.0211C117.027 64.1236 117.73 65.0996 117.715 65.6281C117.714 65.7766 117.71 65.9459 117.682 66.1328C117.635 66.4443 117.549 66.8773 117.332 67.3332C117.115 67.7891 116.669 67.9346 116.3 67.9855C116.062 68.0136 115.831 68.0002 115.602 67.966L112.777 67.2667L112.378 69.0756L114.449 69.4282C115.57 69.5962 116.831 69.8275 117.475 69.924C118.119 70.0204 118.456 69.7524 118.651 69.4419C118.762 69.2674 118.835 69.066 118.872 68.8168C118.938 68.3806 119.003 67.9445 119.089 67.5115C119.198 66.7846 119.353 65.8946 119.44 65.3131C119.633 64.0255 118.931 63.7505 118.51 63.5813Z" fill="#004F91"/>
</svg>
