<svg width="30" height="30" viewBox="0 0 30 30" fill="none" xmlns="http://www.w3.org/2000/svg">
<path d="M7.77001 22.45H6.10001C5.79001 22.45 5.54001 22.21 5.54001 21.9C5.54001 21.59 5.79001 21.35 6.10001 21.35H7.77001C8.08001 21.35 8.33001 21.6 8.33001 21.9C8.33001 22.2 8.08001 22.45 7.77001 22.45Z" fill="#023F85"/>
<path d="M19.1 18.18C18.95 18.3 18.87 18.48 18.89 18.67L19.45 23.81C19.48 24.11 19.76 24.33 20.06 24.3C20.16 24.29 20.26 24.25 20.34 24.19L21.21 23.51L22.24 24.8C22.43 25.04 22.78 25.08 23.02 24.89L24.77 23.54C25.01 23.35 25.05 23.01 24.86 22.77L23.83 21.48L24.7 20.8C24.94 20.61 24.98 20.27 24.79 20.03C24.73 19.95 24.64 19.89 24.54 19.85L19.61 18.09C19.45 18.04 19.25 18.07 19.1 18.18ZM23.24 20.55L22.72 20.95C22.48 21.14 22.44 21.48 22.63 21.72L23.66 23.01L22.79 23.69L21.76 22.4C21.57 22.16 21.22 22.12 20.98 22.31L20.46 22.71L20.11 19.43L23.24 20.55Z" fill="#023F85"/>
<path d="M29.17 9.31H27.78V7.67C27.78 7.37 27.53 7.12 27.22 7.12H17.5C16.5 7.12 15.57 7.59999 15 8.39999C14.43 7.59999 13.5 7.12 12.5 7.12H2.78C2.47 7.12 2.22 7.37 2.22 7.67V9.31H0.83C0.37 9.31 0 9.68 0 10.13V28.2C0 28.65 0.37 29.02 0.83 29.02H11.23C12.16 29.02 13.07 29.23 13.9 29.64L14.31 29.84C14.74 30.05 15.25 30.05 15.68 29.84L16.09 29.64C16.92 29.23 17.83 29.02 18.76 29.02H29.16C29.62 29.02 29.99 28.65 29.99 28.2V10.13C30 9.68 29.63 9.31 29.17 9.31ZM17.5 8.21H26.67V25.73H18.65C17.59 25.73 16.54 25.96 15.58 26.42L15.56 10.13C15.56 9.07 16.43 8.21 17.5 8.21ZM3.33 8.21H12.5C13.57 8.21 14.44 9.07 14.44 10.13L14.46 26.44C13.49 25.97 12.43 25.73 11.35 25.73H3.33V8.21ZM28.89 27.92H18.76C17.66 27.92 16.58 28.17 15.59 28.66L15.18 28.86C15.06 28.92 14.92 28.92 14.81 28.86L14.4 28.66C13.42 28.18 12.33 27.92 11.23 27.92H1.11V10.4H2.22V26.28C2.22 26.58 2.47 26.83 2.78 26.83H11.36C12.54 26.83 13.69 27.17 14.67 27.82L14.69 27.83C14.88 27.95 15.12 27.95 15.31 27.83L15.33 27.82C16.31 27.17 17.46 26.83 18.64 26.83H27.22C27.53 26.83 27.78 26.58 27.78 26.28V10.4H28.89V27.92Z" fill="#023F85"/>
<path d="M6.10999 12.59H7.21999C7.52999 12.59 7.77999 12.34 7.77999 12.04C7.77999 11.74 7.52999 11.49 7.21999 11.49H6.10999C5.79999 11.49 5.54999 11.73 5.54999 12.04C5.55999 12.35 5.79999 12.59 6.10999 12.59Z" fill="#023F85"/>
<path d="M9.44 12.59H12.77C13.08 12.59 13.33 12.34 13.33 12.04C13.33 11.74 13.08 11.49 12.77 11.49H9.44C9.13 11.49 8.88 11.73 8.88 12.04C8.89 12.35 9.14 12.59 9.44 12.59Z" fill="#023F85"/>
<path d="M6.10999 14.78H8.88999C9.19999 14.78 9.44999 14.54 9.44999 14.23C9.44999 13.93 9.19999 13.68 8.88999 13.68H6.10999C5.79999 13.68 5.54999 13.92 5.54999 14.23C5.55999 14.54 5.79999 14.78 6.10999 14.78Z" fill="#023F85"/>
<path d="M12.78 13.69H11.11C10.8 13.69 10.55 13.93 10.55 14.24C10.55 14.54 10.8 14.79 11.11 14.79H12.78C13.09 14.79 13.34 14.55 13.34 14.24C13.33 13.93 13.08 13.69 12.78 13.69Z" fill="#023F85"/>
<path d="M17.22 12.59H18.33C18.64 12.59 18.89 12.34 18.89 12.04C18.89 11.74 18.64 11.49 18.33 11.49H17.22C16.91 11.49 16.66 11.73 16.66 12.04C16.67 12.35 16.92 12.59 17.22 12.59Z" fill="#023F85"/>
<path d="M20.56 12.59H23.89C24.2 12.59 24.45 12.34 24.45 12.04C24.45 11.74 24.2 11.49 23.89 11.49H20.56C20.25 11.49 20 11.73 20 12.04C20 12.35 20.25 12.59 20.56 12.59Z" fill="#023F85"/>
<path d="M17.22 14.78H20C20.31 14.78 20.56 14.54 20.56 14.23C20.56 13.93 20.31 13.68 20 13.68H17.22C16.91 13.68 16.66 13.92 16.66 14.23C16.67 14.54 16.92 14.78 17.22 14.78Z" fill="#023F85"/>
<path d="M23.89 14.78C24.2 14.78 24.45 14.54 24.45 14.23C24.45 13.93 24.2 13.68 23.89 13.68H22.22C21.91 13.68 21.66 13.92 21.66 14.23C21.66 14.53 21.91 14.78 22.22 14.78H23.89Z" fill="#023F85"/>
<path d="M17.22 16.97H18.89C19.2 16.97 19.45 16.72 19.45 16.42C19.45 16.12 19.2 15.87 18.89 15.87H17.22C16.91 15.87 16.66 16.11 16.66 16.42C16.66 16.73 16.92 16.97 17.22 16.97Z" fill="#023F85"/>
<path d="M6.10999 16.97H7.77999C8.08999 16.97 8.33999 16.72 8.33999 16.42C8.33999 16.12 8.08999 15.87 7.77999 15.87H6.10999C5.79999 15.87 5.54999 16.11 5.54999 16.42C5.54999 16.73 5.79999 16.97 6.10999 16.97Z" fill="#023F85"/>
<path d="M12.78 15.88H10C9.69 15.88 9.44 16.12 9.44 16.43C9.44 16.74 9.69 16.98 10 16.98H12.78C13.09 16.98 13.34 16.73 13.34 16.43C13.34 16.13 13.08 15.88 12.78 15.88Z" fill="#023F85"/>
<path d="M6.10999 20.26H8.88999C9.19999 20.26 9.44999 20.02 9.44999 19.71C9.44999 19.41 9.19999 19.16 8.88999 19.16H6.10999C5.79999 19.16 5.54999 19.4 5.54999 19.71C5.55999 20.01 5.79999 20.26 6.10999 20.26Z" fill="#023F85"/>
<path d="M13.93 5.89001C14.56 5.34001 15.5 5.34001 16.13 5.89001C16.36 6.09001 16.71 6.07001 16.91 5.84001C17.11 5.61001 17.09 5.27001 16.86 5.07001C15.81 4.16001 14.24 4.16001 13.19 5.07001C12.96 5.27001 12.94 5.62001 13.14 5.84001C13.35 6.06001 13.7 6.09001 13.93 5.89001Z" fill="#023F85"/>
<path d="M17.97 4.38C18.28 4.38 18.53 4.14 18.53 3.83C18.53 3.67 18.46 3.52 18.34 3.42C17.43 2.63 16.25 2.19 15.03 2.19C14.81 2.19 14.59 2.2 14.37 2.23C14.07 2.27 13.85 2.54 13.89 2.84C13.93 3.14 14.21 3.35 14.51 3.31C14.68 3.29 14.85 3.28 15.02 3.28C15.97 3.28 16.88 3.62 17.59 4.24C17.7 4.33 17.84 4.38 17.97 4.38Z" fill="#023F85"/>
<path d="M13.26 3.05999C13.1 2.79999 12.76 2.70999 12.5 2.86999C12.23 3.02999 11.97 3.20999 11.73 3.41999C11.5 3.61999 11.48 3.96999 11.68 4.18999C11.88 4.41999 12.23 4.43999 12.46 4.23999C12.65 4.07999 12.85 3.92999 13.06 3.80999C13.32 3.65999 13.41 3.31999 13.26 3.05999Z" fill="#023F85"/>
<path d="M17.48 1.60001C18.06 1.85001 18.6 2.19001 19.08 2.60001C19.31 2.80001 19.66 2.78001 19.86 2.55001C20.06 2.32001 20.04 1.98001 19.81 1.78001C19.25 1.29001 18.61 0.890006 17.92 0.590006C17.64 0.470006 17.31 0.600006 17.19 0.870006C17.07 1.15001 17.2 1.48001 17.48 1.60001Z" fill="#023F85"/>
<path d="M10.62 2.74C10.76 2.74 10.89 2.69 10.99 2.6C12.11 1.63 13.54 1.09 15.03 1.09C15.36 1.09 15.69 1.12 16.02 1.17C16.32 1.22 16.61 1.02 16.66 0.72C16.71 0.42 16.51 0.14 16.21 0.09H16.2C15.81 0.03 15.42 0 15.03 0C13.27 0 11.57 0.63 10.25 1.78C10.02 1.98 10 2.33 10.2 2.55C10.31 2.67 10.46 2.74 10.62 2.74Z" fill="#023F85"/>
</svg>
