<svg width="194" height="51" viewBox="0 0 194 51" fill="none" xmlns="http://www.w3.org/2000/svg">
<path d="M10.215 12.5171L191.4 8.47516L183.506 38.3409L1.89053 39.6925L10.215 12.5171Z" fill="white"/>
<path d="M17.8339 20.2529L21.2989 20.2739C21.1519 24.9779 21.0889 29.3039 21.0679 33.3359L22.8109 33.2939L22.8529 18.6989L16.1329 18.4469C16.0069 18.4469 16.5739 32.9369 16.4899 33.0209C16.4269 33.0839 16.8889 33.0629 17.3299 32.9999L18.2329 32.8949L17.8339 20.2529ZM30.5002 18.6149C30.2272 18.4679 29.9332 18.3629 29.5972 18.2999L28.6102 18.2579C28.0012 18.2369 27.1822 18.2369 26.2792 18.2579C25.3762 18.2789 24.9562 18.8039 24.7252 19.3079C24.5992 19.6019 24.5362 19.9379 24.5152 20.3159L24.4942 30.5219C24.4312 31.8029 24.8092 32.7479 26.1532 32.9789C26.6362 32.9789 27.0982 32.9789 27.5602 32.9999C28.3372 33.0209 29.2192 33.0419 29.7862 33.0209C30.6892 33.0209 31.3192 32.1179 31.3192 31.2359L31.3612 26.5109C31.3612 24.0539 31.4032 21.2819 31.4032 20.3579C31.4032 19.4129 30.9412 18.8879 30.5002 18.6149ZM29.4502 30.1649C29.4082 30.3959 29.3662 30.6059 29.3032 30.7949C29.1352 31.1099 28.6522 31.3829 27.9802 31.3829C26.5942 31.3829 26.4892 31.1939 26.4892 30.1859C26.4892 29.7239 26.5312 20.9879 26.5312 20.6729C26.5312 19.6649 26.6152 19.4759 28.0012 19.4759C28.6942 19.4759 29.0512 19.5179 29.2192 19.8329C29.2822 20.0219 29.3032 20.4839 29.3242 20.7149C29.3242 20.7149 29.4082 22.3529 29.4082 24.9149C29.4082 27.0149 29.4502 30.1649 29.4502 30.1649ZM41.8821 30.9839C41.8191 27.2039 41.8401 23.4029 41.7351 18.2579L36.3801 18.3419L36.4431 21.0929C36.4641 22.6049 36.4641 24.2849 36.3801 25.2719C36.2961 26.2589 35.8341 27.6869 35.3931 28.8839C35.1411 29.5769 34.8681 30.3119 34.5531 31.0469L32.8731 31.0889C32.8101 31.7399 32.7681 32.3699 32.8311 33.0209L32.8521 33.1469L32.8941 34.2809C32.9151 34.8689 32.9361 35.4569 32.9361 35.5199H34.9101L34.9521 33.1049L42.4911 33.0629L42.5331 35.3939L44.5071 35.3519L44.6121 31.0469L41.8821 30.9839ZM39.5931 30.9419C39.5931 30.9419 36.9471 31.1309 36.9051 31.0049C36.8421 30.6269 37.7451 29.7029 38.1441 25.3139C38.2071 24.6419 38.1231 20.3999 38.1441 20.2949C38.2701 20.2949 39.1311 20.3369 39.3621 20.3159C39.4041 20.6309 39.5931 30.9419 39.5931 30.9419ZM47.7811 20.2529L51.2461 20.2739C51.0991 24.9779 51.0361 29.3039 51.0151 33.3359L52.7581 33.2939L52.8001 18.6989L46.0801 18.4469C45.9541 18.4469 46.5211 32.9369 46.4371 33.0209C46.3741 33.0839 46.8361 33.0629 47.2771 32.9999L48.1801 32.8949L47.7811 20.2529ZM61.3505 32.9789L61.5395 18.2999L59.5655 18.3839L56.6675 27.9809L56.4575 18.0059L54.3995 18.2579L54.6935 33.1469L56.8355 33.0629L59.5235 24.3059L59.2085 33.0209L61.3505 32.9789ZM69.5569 18.2789C69.0109 18.2789 66.6169 18.6149 64.9999 19.0139C64.1809 19.2029 63.7819 19.5809 63.5509 19.8959C63.4249 20.0849 63.3619 20.2949 63.3409 20.5049L63.0889 30.5219C63.2569 32.3489 64.2859 33.1679 66.1969 32.9999L69.8929 32.6639L69.7669 30.8999C69.3469 30.9629 68.9479 31.0049 68.5489 31.0469C67.8769 31.1099 67.0579 31.1729 66.5539 31.1729C65.5249 31.1729 65.3779 30.8789 65.1049 30.4379C64.8529 29.9549 64.8319 23.8649 64.9159 22.4159C64.9789 21.6809 65.2309 21.3239 65.4829 21.1349C65.6299 21.0299 65.7979 20.9669 65.9869 20.9459L69.4519 20.5259L69.5569 18.2789ZM71.3702 18.3419L71.5382 33.1049H73.3862L73.4282 26.7209L76.3262 33.0629L77.9852 31.7609L74.5202 25.6289L78.3002 19.5809L77.1032 18.1319L73.3022 24.3059L73.2182 18.0059L71.3702 18.3419ZM84.856 18.3629C83.953 18.2999 82.021 18.2999 80.929 18.2999L79.648 32.9789H81.454C81.769 30.8999 81.811 28.9049 82.21 27.3089L84.016 27.5819C84.352 28.6949 84.625 31.6559 84.793 32.9789H86.599L84.856 18.3629ZM83.848 25.7339L82.441 25.5659L82.651 21.1979L83.26 21.2189L83.848 25.7339ZM94.7448 33.0209C94.6818 33.0839 95.1438 33.0629 95.5848 32.9999L96.4878 32.8949L96.6138 27.3089L98.5878 27.4349L99.0288 32.8109L100.772 32.7689L100.814 18.1739H99.3018L98.6718 25.7129L96.4458 25.5869L96.0468 18.4889C95.7738 18.4889 95.5008 18.4889 95.2698 18.4679C94.8708 18.4679 94.4508 18.4469 94.3878 18.4469C94.2618 18.4469 94.8288 32.9369 94.7448 33.0209ZM107.523 18.3629C106.62 18.2999 104.688 18.2999 103.596 18.2999L102.315 32.9789H104.121C104.436 30.8999 104.478 28.9049 104.877 27.3089L106.683 27.5819C107.019 28.6949 107.292 31.6559 107.46 32.9789H109.266L107.523 18.3629ZM106.515 25.7339L105.108 25.5659L105.318 21.1979L105.927 21.2189L106.515 25.7339ZM118.84 32.9789L119.092 22.7729L121.675 28.0229H123.04L125.266 23.3819L125.413 32.9789L127.324 33.1049L126.757 18.2159H125.056L122.473 25.2299L118.882 18.2159L116.992 18.4889L117.118 32.9789H118.84ZM130.834 26.2169L128.671 32.9789L130.624 33.2729L135.202 18.4889L133.522 18.2999L131.8 23.1089L130.33 18.0479L128.671 18.3419L130.834 26.2169ZM141.669 26.5949C142.32 26.4479 142.635 26.0909 142.782 25.7339C142.866 25.5239 142.908 25.2929 142.929 25.0619C142.95 24.4529 142.95 23.8439 142.95 23.2349C142.95 22.2059 142.95 20.9459 142.887 20.0219C142.824 19.1189 142.278 18.6779 141.711 18.4469C141.396 18.3209 141.018 18.2579 140.619 18.2579L136.545 18.6779L136.629 20.2529L138.162 20.1689C138.981 20.1059 139.905 20.1059 140.346 20.0849C140.766 20.0849 141.039 20.2949 141.207 20.5259C141.312 20.6729 141.375 20.8199 141.438 20.9669C141.459 20.9249 141.48 20.9669 141.501 21.0929C141.564 21.3239 141.564 21.8489 141.627 23.1089C141.69 24.3689 141.039 24.9989 140.388 25.3139C140.01 25.5029 139.569 25.6079 139.086 25.6289L139.17 27.4139C140.283 27.3509 141.123 28.2119 141.186 28.7369C141.207 28.8839 141.228 29.0519 141.228 29.2409C141.228 29.5559 141.207 29.9969 141.06 30.4799C140.913 30.9629 140.493 31.1729 140.136 31.2779C139.905 31.3409 139.674 31.3619 139.443 31.3619L136.545 31.0889L136.419 32.9369L138.519 32.9789C139.653 32.9789 140.934 33.0209 141.585 33.0209C142.236 33.0209 142.53 32.7059 142.677 32.3699C142.761 32.1809 142.803 31.9709 142.803 31.7189C142.803 31.2779 142.803 30.8369 142.824 30.3959C142.824 29.6609 142.845 28.7579 142.845 28.1699C142.845 26.8679 142.11 26.6999 141.669 26.5949ZM150.65 26.9099C150.587 26.5739 150.461 26.2799 150.293 26.0279C149.978 25.5869 149.474 25.1459 148.55 25.1459C147.626 25.1459 147.164 25.1669 146.933 25.1879C146.786 25.2089 146.723 25.2089 146.702 25.2299L146.576 18.0689L144.665 18.3419L144.581 32.9369L148.466 32.8949C148.865 32.8529 149.243 32.7689 149.579 32.6219C150.146 32.3909 150.671 31.9919 150.734 31.2569C150.755 30.5219 150.734 29.4509 150.713 28.5479L150.65 26.9099ZM148.634 31.2989C148.256 31.6139 146.66 31.6349 146.66 31.5299C146.66 30.9839 146.786 26.8469 146.807 26.8049C146.891 26.7209 147.605 26.6999 147.815 26.7419C148.046 26.7839 148.256 26.8469 148.445 26.9309C148.823 27.1199 148.802 27.4349 148.886 27.7709C148.949 28.0859 149.18 30.8369 148.634 31.2989ZM154.43 18.3839L152.099 18.3419L152.456 33.0209L154.472 32.9789L154.43 18.3839ZM156.08 18.3419L156.248 33.1049H158.096L158.138 26.7209L161.036 33.0629L162.695 31.7609L159.23 25.6289L163.01 19.5809L161.813 18.1319L158.012 24.3059L157.928 18.0059L156.08 18.3419ZM166.416 26.2169L164.253 32.9789L166.206 33.2729L170.784 18.4889L169.104 18.2999L167.382 23.1089L165.912 18.0479L164.253 18.3419L166.416 26.2169Z" fill="#004F91"/>
</svg>
