<svg width="30" height="30" viewBox="0 0 30 30" fill="none" xmlns="http://www.w3.org/2000/svg">
<g clip-path="url(#clip0)">
<path d="M28.4995 13.5452H27.9993V13.0435C27.9993 12.6823 27.7993 12.3512 27.4892 12.1706C27.2991 5.39799 21.7673 0 15.005 0C8.24275 0 2.7009 5.39799 2.51084 12.1806C2.20073 12.3512 2.00067 12.6923 2.00067 13.0435V13.5452H1.5005C0.670223 13.5452 0 14.2274 0 15.0502V21.0702C0 21.903 0.670223 22.5753 1.5005 22.5753H2.00067V23.0769C2.00067 23.6288 2.45082 24.0803 3.001 24.0803H5.00167C5.83194 24.0803 6.50217 23.408 6.50217 22.5753V13.5452C6.50217 12.913 6.11204 12.3612 5.52184 12.1405C5.73191 7.04348 9.9133 3.01003 15.005 3.01003C20.0967 3.01003 24.2781 7.03345 24.4882 12.1405C23.898 12.3612 23.5078 12.913 23.5078 13.5452V22.5753C23.5078 23.408 24.1781 24.0803 25.0083 24.0803H27.009C27.5592 24.0803 28.0093 23.6288 28.0093 23.0769V22.5753H28.5095C29.3398 22.5753 30.01 21.903 30.01 21.0702V15.0502C30 14.2274 29.3298 13.5452 28.4995 13.5452ZM1.5005 21.5719C1.22041 21.5719 1.00033 21.3512 1.00033 21.0702V15.0502C1.00033 14.7692 1.22041 14.5485 1.5005 14.5485H2.00067V21.5719H1.5005ZM5.50183 22.5753C5.50183 22.8562 5.27176 23.0769 5.00167 23.0769H3.001V13.0435H5.00167C5.28176 13.0435 5.50183 13.2642 5.50183 13.5452V22.5753ZM15.005 2.01672C9.40313 2.02676 4.7916 6.43144 4.52151 12.0401H3.51117C3.80127 5.88963 8.85295 1.04348 15.005 1.04348C21.1571 1.04348 26.1987 5.88963 26.4888 12.0401H25.4785C25.2084 6.43144 20.5969 2.02676 15.005 2.01672ZM26.999 23.0769H24.9983C24.7182 23.0769 24.4982 22.8562 24.4982 22.5753V13.5452C24.4982 13.2642 24.7182 13.0435 24.9983 13.0435H26.999V23.0769ZM28.9997 21.0702C28.9997 21.3512 28.7796 21.5719 28.4995 21.5719H27.9993V14.5485H28.4995C28.7796 14.5485 28.9997 14.7692 28.9997 15.0502V21.0702Z" fill="#023F85"/>
<path d="M18.8263 7.39465H11.5539C9.98334 7.39465 8.70291 8.67893 8.70291 10.2542V27.1505C8.70291 28.7258 9.98334 30.01 11.5539 30.01H18.8263C20.3968 30.01 21.6772 28.7258 21.6772 27.1505V10.2442C21.6772 8.6689 20.3968 7.39465 18.8263 7.39465ZM11.5539 8.49833H18.8263C19.7866 8.49833 20.5769 9.28094 20.5769 10.2542V23.7793H9.80328V10.2442C9.80328 9.28094 10.5935 8.49833 11.5539 8.49833ZM18.8263 28.8963H11.5539C10.5935 28.8963 9.80328 28.1137 9.80328 27.1405V24.8829H20.5669V27.1405C20.5769 28.1037 19.7866 28.8963 18.8263 28.8963Z" fill="#023F85"/>
<path d="M12.7743 10.2642H17.6059C17.906 10.2642 18.1561 10.0134 18.1561 9.71239C18.1561 9.41139 17.906 9.16055 17.6059 9.16055H12.7743C12.4742 9.16055 12.2241 9.41139 12.2241 9.71239C12.2241 10.0134 12.4742 10.2642 12.7743 10.2642Z" fill="#023F85"/>
<path d="M15.1851 25.6756C14.4748 25.6756 13.8947 26.2575 13.8947 26.9699C13.8947 27.6823 14.4748 28.2642 15.1851 28.2642C15.8953 28.2642 16.4755 27.6823 16.4755 26.9699C16.4755 26.2575 15.8953 25.6756 15.1851 25.6756ZM15.1851 27.3913C14.945 27.3913 14.7549 27.2007 14.7549 26.9599C14.7549 26.7191 14.945 26.5284 15.1851 26.5284C15.4252 26.5284 15.6152 26.7191 15.6152 26.9599C15.6152 27.2007 15.4252 27.3913 15.1851 27.3913Z" fill="#023F85"/>
<path d="M12.8243 21.0201C13.8446 21.0201 14.6749 20.3478 14.6749 19.5151V17.0769L17.876 15.7325V17.1672C17.5959 17.0368 17.2758 16.9666 16.9657 16.9766C15.9453 16.9766 15.115 17.6488 15.115 18.4816C15.115 19.3144 15.9453 19.9866 16.9657 19.9866C17.986 19.9866 18.8163 19.3144 18.8163 18.4816V13.2943C18.8163 13.1438 18.7463 13.0034 18.6262 12.9131H18.6162C18.4962 12.8328 18.3361 12.8127 18.1861 12.8629L14.0647 14.5886C13.8746 14.6488 13.7446 14.8194 13.7346 15.0201V18.2007C13.4545 18.0702 13.1344 18.01 12.8243 18.01C11.8039 18.01 10.9737 18.6823 10.9737 19.5151C10.9737 20.3478 11.8039 21.0201 12.8243 21.0201ZM16.9657 19.0435C16.4855 19.0435 16.0554 18.7826 16.0554 18.4816C16.0554 18.1806 16.4755 17.9197 16.9657 17.9197C17.4558 17.9197 17.876 18.1806 17.876 18.4816C17.876 18.7826 17.4458 19.0435 16.9657 19.0435ZM14.6749 15.3512L17.876 14.0067V14.699L14.6749 16.0435V15.3512ZM12.8243 18.9532C13.3044 18.9532 13.7346 19.2141 13.7346 19.5151C13.7346 19.8161 13.3144 20.0769 12.8243 20.0769C12.3341 20.0769 11.914 19.8161 11.914 19.5151C11.914 19.2141 12.3441 18.9532 12.8243 18.9532Z" fill="#023F85"/>
</g>
<defs>
<clipPath id="clip0">
<rect width="30" height="30" fill="white"/>
</clipPath>
</defs>
</svg>
