<svg width="174" height="50" viewBox="0 0 174 50" fill="none" xmlns="http://www.w3.org/2000/svg">
<path d="M9.15227 11.2687L171.459 8.54104L164.611 38.7907L1.89928 38.7848L9.15227 11.2687Z" fill="white"/>
<path d="M19.539 19.2528L23.004 19.2738C22.857 23.9778 22.794 28.3038 22.773 32.3358L24.516 32.2938L24.558 17.6988L17.838 17.4468C17.712 17.4468 18.279 31.9368 18.195 32.0208C18.132 32.0838 18.594 32.0628 19.035 31.9998L19.938 31.8948L19.539 19.2528ZM32.2053 17.6148C31.9323 17.4678 31.6383 17.3628 31.3023 17.2998L30.3153 17.2578C29.7063 17.2368 28.8873 17.2368 27.9843 17.2578C27.0813 17.2788 26.6613 17.8038 26.4303 18.3078C26.3043 18.6018 26.2413 18.9378 26.2203 19.3158L26.1993 29.5218C26.1363 30.8028 26.5143 31.7478 27.8583 31.9788C28.3413 31.9788 28.8033 31.9788 29.2653 31.9998C30.0423 32.0208 30.9243 32.0418 31.4913 32.0208C32.3943 32.0208 33.0243 31.1178 33.0243 30.2358L33.0663 25.5108C33.0663 23.0538 33.1083 20.2818 33.1083 19.3578C33.1083 18.4128 32.6463 17.8878 32.2053 17.6148ZM31.1553 29.1648C31.1133 29.3958 31.0713 29.6058 31.0083 29.7948C30.8403 30.1098 30.3573 30.3828 29.6853 30.3828C28.2993 30.3828 28.1943 30.1938 28.1943 29.1858C28.1943 28.7238 28.2363 19.9878 28.2363 19.6728C28.2363 18.6648 28.3203 18.4758 29.7063 18.4758C30.3993 18.4758 30.7563 18.5178 30.9243 18.8328C30.9873 19.0218 31.0083 19.4838 31.0293 19.7148C31.0293 19.7148 31.1133 21.3528 31.1133 23.9148C31.1133 26.0148 31.1553 29.1648 31.1553 29.1648ZM43.5872 29.9838C43.5242 26.2038 43.5452 22.4028 43.4402 17.2578L38.0852 17.3418L38.1482 20.0928C38.1692 21.6048 38.1692 23.2848 38.0852 24.2718C38.0012 25.2588 37.5392 26.6868 37.0982 27.8838C36.8462 28.5768 36.5732 29.3118 36.2582 30.0468L34.5782 30.0888C34.5152 30.7398 34.4732 31.3698 34.5362 32.0208L34.5572 32.1468L34.5992 33.2808C34.6202 33.8688 34.6412 34.4568 34.6412 34.5198H36.6152L36.6572 32.1048L44.1962 32.0628L44.2382 34.3938L46.2122 34.3518L46.3172 30.0468L43.5872 29.9838ZM41.2982 29.9418C41.2982 29.9418 38.6522 30.1308 38.6102 30.0048C38.5472 29.6268 39.4502 28.7028 39.8492 24.3138C39.9122 23.6418 39.8282 19.3998 39.8492 19.2948C39.9752 19.2948 40.8362 19.3368 41.0672 19.3158C41.1092 19.6308 41.2982 29.9418 41.2982 29.9418ZM49.4862 19.2528L52.9512 19.2738C52.8042 23.9778 52.7412 28.3038 52.7202 32.3358L54.4632 32.2938L54.5052 17.6988L47.7852 17.4468C47.6592 17.4468 48.2262 31.9368 48.1422 32.0208C48.0792 32.0838 48.5412 32.0628 48.9822 31.9998L49.8852 31.8948L49.4862 19.2528ZM63.0555 31.9788L63.2445 17.2998L61.2705 17.3838L58.3725 26.9808L58.1625 17.0058L56.1045 17.2578L56.3985 32.1468L58.5405 32.0628L61.2285 23.3058L60.9135 32.0208L63.0555 31.9788ZM71.262 17.2788C70.716 17.2788 68.322 17.6148 66.705 18.0138C65.886 18.2028 65.487 18.5808 65.256 18.8958C65.13 19.0848 65.067 19.2948 65.046 19.5048L64.794 29.5218C64.962 31.3488 65.991 32.1678 67.902 31.9998L71.598 31.6638L71.472 29.8998C71.052 29.9628 70.653 30.0048 70.254 30.0468C69.582 30.1098 68.763 30.1728 68.259 30.1728C67.23 30.1728 67.083 29.8788 66.81 29.4378C66.558 28.9548 66.537 22.8648 66.621 21.4158C66.684 20.6808 66.936 20.3238 67.188 20.1348C67.335 20.0298 67.503 19.9668 67.692 19.9458L71.157 19.5258L71.262 17.2788ZM73.0753 17.3418L73.2433 32.1048H75.0913L75.1333 25.7208L78.0312 32.0628L79.6903 30.7608L76.2253 24.6288L80.0053 18.5808L78.8083 17.1318L75.0073 23.3058L74.9233 17.0058L73.0753 17.3418ZM86.5611 17.3628C85.6581 17.2998 83.7261 17.2998 82.6341 17.2998L81.3531 31.9788H83.1591C83.4741 29.8998 83.5161 27.9048 83.9151 26.3088L85.7211 26.5818C86.0571 27.6948 86.3301 30.6558 86.4981 31.9788H88.3041L86.5611 17.3628ZM85.5531 24.7338L84.1461 24.5658L84.3561 20.1978L84.9651 20.2188L85.5531 24.7338ZM96.4498 32.0208C96.3868 32.0838 96.8488 32.0628 97.2898 31.9998L98.1928 31.8948L98.3188 26.3088L100.293 26.4348L100.734 31.8108L102.477 31.7688L102.519 17.1738H101.007L100.377 24.7128L98.1508 24.5868L97.7518 17.4888C97.4788 17.4888 97.2058 17.4888 96.9748 17.4678C96.5758 17.4678 96.1558 17.4468 96.0928 17.4468C95.9668 17.4468 96.5338 31.9368 96.4498 32.0208ZM109.228 17.3628C108.325 17.2998 106.393 17.2998 105.301 17.2998L104.02 31.9788H105.826C106.141 29.8998 106.183 27.9048 106.582 26.3088L108.388 26.5818C108.724 27.6948 108.997 30.6558 109.165 31.9788H110.971L109.228 17.3628ZM108.22 24.7338L106.813 24.5658L107.023 20.1978L107.632 20.2188L108.22 24.7338ZM118.676 17.3418L118.844 32.1048H120.692L120.734 25.7208L123.632 32.0628L125.291 30.7608L121.826 24.6288L125.606 18.5808L124.409 17.1318L120.608 23.3058L120.524 17.0058L118.676 17.3418ZM127.5 32.0208C127.437 32.0838 127.899 32.0628 128.34 31.9998L129.243 31.8948L129.369 26.3088L131.343 26.4348L131.784 31.8108L133.527 31.7688L133.569 17.1738H132.057L131.427 24.7128L129.201 24.5868L128.802 17.4888C128.529 17.4888 128.256 17.4888 128.025 17.4678C127.626 17.4678 127.206 17.4468 127.143 17.4468C127.017 17.4468 127.584 31.9368 127.5 32.0208ZM142.126 31.9788L142.315 17.2998L140.341 17.3838L137.443 26.9808L137.233 17.0058L135.175 17.2578L135.469 32.1468L137.611 32.0628L140.299 23.3058L139.984 32.0208L142.126 31.9788ZM143.969 17.2578C143.906 21.9828 144.074 26.8548 144.221 31.9788H146.111V19.1478H150.29C150.353 18.7278 150.374 17.8248 150.374 17.2578H143.969ZM158.645 31.9788L158.834 17.2998L156.86 17.3838L153.962 26.9808L153.752 17.0058L151.694 17.2578L151.988 32.1468L154.13 32.0628L156.818 23.3058L156.503 32.0208L158.645 31.9788Z" fill="#004F91"/>
</svg>
