<svg width="154" height="47" viewBox="0 0 154 47" fill="none" xmlns="http://www.w3.org/2000/svg">
<path d="M145.499 37.4955L1.72612 38.3632L7.77151 8.73724L151.905 10.5581L145.499 37.4955Z" fill="white"/>
<path d="M26.482 21.7393C26.482 20.2063 25.348 19.2193 23.5 19.4503L23.437 16.8673H21.442L21.4 19.6393C21.001 19.6183 19.636 19.6813 19.342 19.7863C18.817 19.9753 18.313 20.4163 18.313 21.4243V25.9393C18.292 26.4223 18.334 26.8633 18.481 27.2413C18.712 27.8923 20.266 28.5433 21.442 28.5223L21.379 30.0133C21.358 30.4123 21.337 30.7693 21.337 31.0423C21.316 31.1893 21.316 31.3573 21.316 31.5043C21.379 31.5043 21.82 31.5253 22.24 31.5463L23.08 31.5883L23.29 28.5223C23.689 28.5853 25.012 28.5433 25.327 28.3963C25.852 28.1863 26.44 27.4303 26.44 25.8973C26.503 22.7263 26.482 21.8023 26.482 21.7393ZM21.484 26.5903C21.337 26.7373 20.308 26.7163 20.287 26.5063C20.266 26.4013 20.266 21.6973 20.266 21.6973C20.518 21.5923 21.337 21.5713 21.421 21.6553C21.526 21.7813 21.484 26.3173 21.484 26.5903ZM24.466 26.5273C24.424 26.6113 24.361 26.6743 24.277 26.7163C24.235 26.7583 23.437 26.7163 23.437 26.6323C23.437 26.5063 23.542 21.6133 23.563 21.5923C23.563 21.5923 24.424 21.4453 24.487 21.7603C24.529 21.9703 24.529 22.1803 24.529 22.3693C24.529 22.6423 24.571 26.3593 24.466 26.5273ZM35.0819 31.5463L35.2709 16.8673L33.2969 16.9513L30.3989 26.5483L30.1889 16.5733L28.1309 16.8253L28.4249 31.7143L30.5669 31.6303L33.2549 22.8733L32.9399 31.5883L35.0819 31.5463ZM39.2774 18.9253V31.5673H41.3354C41.3354 27.3883 41.0834 23.0623 41.0834 18.6733H44.1704V18.4003C44.1704 18.1483 44.1284 17.7703 44.1074 17.4553L44.0654 16.8883L36.7364 16.7623C36.6734 17.1613 36.6944 18.5473 36.6944 18.9253H39.2774ZM45.9733 31.5883C45.9103 31.6513 46.3723 31.6303 46.8133 31.5673L47.7163 31.4623L47.8423 25.8763L49.8163 26.0023L50.2573 31.3783L52.0003 31.3363L52.0423 16.7413H50.5303L49.9003 24.2803L47.6743 24.1543L47.2753 17.0563C47.0023 17.0563 46.7293 17.0563 46.4983 17.0353C46.0993 17.0353 45.6793 17.0143 45.6163 17.0143C45.4903 17.0143 46.0573 31.5043 45.9733 31.5883ZM53.9425 31.5463H60.2425V29.9713H55.9795C55.9585 29.1523 55.7695 27.8923 55.7695 27.0733V26.8213L59.7175 26.2963V24.7213H55.7695C55.7065 24.1333 55.4125 19.8283 55.5175 18.4213H60.2425V16.8463C58.1425 16.8463 55.7485 16.7413 53.6485 16.8463L53.9425 31.5463ZM68.0882 16.8463C67.5422 16.8463 65.1482 17.1823 63.5312 17.5813C62.7122 17.7703 62.3132 18.1483 62.0822 18.4633C61.9562 18.6523 61.8932 18.8623 61.8722 19.0723L61.6202 29.0893C61.7882 30.9163 62.8172 31.7353 64.7282 31.5673L68.4242 31.2313L68.2982 29.4673C67.8782 29.5303 67.4792 29.5723 67.0802 29.6143C66.4082 29.6773 65.5892 29.7403 65.0852 29.7403C64.0562 29.7403 63.9092 29.4463 63.6362 29.0053C63.3842 28.5223 63.3632 22.4323 63.4472 20.9833C63.5102 20.2483 63.7622 19.8913 64.0142 19.7023C64.1612 19.5973 64.3292 19.5343 64.5182 19.5133L67.9832 19.0933L68.0882 16.8463ZM69.9224 23.3773L69.8804 25.6663L77.1884 25.5403L77.3144 23.0413L69.9224 23.3773ZM85.3996 25.6873C85.3786 24.8473 85.0636 24.3643 84.7486 24.0493C84.5596 23.8813 84.3706 23.7553 84.1396 23.6713C83.3836 23.5243 82.5226 23.4613 81.4516 23.5243C81.4306 22.0123 81.3466 20.5843 81.4936 18.7153C83.1526 18.8623 84.2236 18.7783 85.3996 18.7573L85.3576 16.7413C83.5936 16.6783 81.7456 16.6363 79.5406 16.7833L79.3096 31.5463H83.8666C84.5596 31.5463 84.9586 31.1683 85.1896 30.7693C85.3156 30.5383 85.3996 30.2653 85.4416 29.9713V28.4593C85.4416 27.5983 85.4206 26.5483 85.3996 25.6873ZM83.3836 29.7823C83.0056 30.0973 81.4096 30.1393 81.4096 30.0133C81.4096 29.4883 81.5356 25.3303 81.5566 25.2883C81.6406 25.2043 82.3546 25.1833 82.5646 25.2253C82.7956 25.2673 83.0056 25.3303 83.1946 25.4353C83.5726 25.6243 83.5516 25.9183 83.6356 26.2543C83.6986 26.5693 83.9296 29.3203 83.3836 29.7823ZM93.3157 18.6313C93.0637 16.0903 88.9477 16.6153 86.9737 16.8673L87.4777 31.5463H89.2417V25.9813C90.5017 26.0443 93.1477 25.1623 93.3157 23.4403C93.4837 21.8443 93.4837 20.2483 93.3157 18.6313ZM91.4887 22.4533C91.4047 22.7893 91.4257 23.1043 91.0477 23.2933C90.8587 23.3773 90.6487 23.4403 90.4177 23.4823C90.2077 23.5243 89.4937 23.5033 89.4097 23.4193C89.3887 23.3773 89.2627 19.2403 89.2627 18.6943C89.2627 18.5893 90.8587 18.6103 91.2367 18.9253C91.7827 19.3873 91.5517 22.1383 91.4887 22.4533ZM99.9273 16.9303C99.0243 16.8673 97.0923 16.8673 96.0003 16.8673L94.7193 31.5463H96.5253C96.8403 29.4673 96.8823 27.4723 97.2813 25.8763L99.0873 26.1493C99.4233 27.2623 99.6963 30.2233 99.8643 31.5463H101.67L99.9273 16.9303ZM98.9193 24.3013L97.5123 24.1333L97.7223 19.7653L98.3313 19.7863L98.9193 24.3013ZM109.551 16.8463C109.005 16.8463 106.611 17.1823 104.994 17.5813C104.175 17.7703 103.776 18.1483 103.545 18.4633C103.419 18.6523 103.356 18.8623 103.335 19.0723L103.083 29.0893C103.251 30.9163 104.28 31.7353 106.191 31.5673L109.887 31.2313L109.761 29.4673C109.341 29.5303 108.942 29.5723 108.543 29.6143C107.871 29.6773 107.052 29.7403 106.548 29.7403C105.519 29.7403 105.372 29.4463 105.099 29.0053C104.847 28.5223 104.826 22.4323 104.91 20.9833C104.973 20.2483 105.225 19.8913 105.477 19.7023C105.624 19.5973 105.792 19.5343 105.981 19.5133L109.446 19.0933L109.551 16.8463ZM112.792 31.5883C114.388 31.5883 116.236 29.5303 116.341 27.5353L116.383 18.7153H118.525L118.567 31.7143H120.751L120.352 16.7833L114.409 16.8253C114.409 18.5473 114.409 20.1433 114.43 21.5923C114.43 24.0703 114.451 26.7373 114.451 27.4723C114.451 28.9843 113.233 29.7613 112.393 29.7613L111.28 29.8033L111.154 31.6303L112.792 31.5883ZM122.625 31.5463H128.925V29.9713H124.662C124.641 29.1523 124.452 27.8923 124.452 27.0733V26.8213L128.4 26.2963V24.7213H124.452C124.389 24.1333 124.095 19.8283 124.2 18.4213H128.925V16.8463C126.825 16.8463 124.431 16.7413 122.331 16.8463L122.625 31.5463ZM132.76 18.9253V31.5673H134.818C134.818 27.3883 134.566 23.0623 134.566 18.6733H137.653V18.4003C137.653 18.1483 137.611 17.7703 137.59 17.4553L137.548 16.8883L130.219 16.7623C130.156 17.1613 130.177 18.5473 130.177 18.9253H132.76Z" fill="#004F91"/>
</svg>
