<svg width="28" height="30" viewBox="0 0 28 30" fill="none" xmlns="http://www.w3.org/2000/svg">
<g clip-path="url(#clip0)">
<path d="M18.4272 30C18.298 30 18.1689 29.9801 18.0497 29.9404L15.2583 29.0861C14.5728 28.8775 14.1954 28.1523 14.394 27.4669L18.1987 15.0199C18.3675 14.4735 18.8642 14.106 19.4404 14.106C19.5695 14.106 19.6987 14.1258 19.8179 14.1656L22.6093 15.0199C23.2947 15.2285 23.6722 15.9536 23.4735 16.6391L24.9139 18.0199C25.0629 18.1589 25.1325 18.3675 25.1026 18.5662L25.3808 18.6556C25.8079 17.394 26.0265 16.0828 26.0265 14.7517C26.0265 13.9868 25.957 13.2119 25.8079 12.457C25.2219 12.3278 24.755 11.8907 24.5762 11.3046C23.9007 9.00993 22.5397 7.02318 20.6325 5.57285C18.6854 4.08278 16.3609 3.30795 13.9073 3.30795C11.4536 3.30795 9.12914 4.09272 7.18212 5.57285C5.27483 7.02318 3.91391 9.00993 3.23841 11.3046C3.06954 11.8907 2.60265 12.3179 2.00662 12.457C1.86755 13.2119 1.78808 13.9768 1.78808 14.7417C1.78808 16.0728 2.00662 17.3841 2.43377 18.6457L2.71192 18.5563C2.68212 18.3576 2.75166 18.1589 2.90066 18.0099L4.34106 16.6391C4.15232 15.9139 4.5298 15.2185 5.19536 15.0199L7.98675 14.1656C8.10596 14.1258 8.2351 14.106 8.36424 14.106C8.9404 14.106 9.43709 14.4735 9.60596 15.0199L13.4106 27.4669C13.6192 28.1523 13.2318 28.8775 12.5464 29.0861L9.75497 29.9404C9.63576 29.9801 9.51656 30 9.38742 30C8.81126 30 8.31457 29.6325 8.1457 29.0861L6.18874 28.7483C5.98013 28.7185 5.81126 28.5894 5.73179 28.4007L3.97351 28.9371C3.84437 28.9768 3.7053 28.9967 3.57616 28.9967C2.9702 28.9967 2.45364 28.6093 2.27483 28.0331L0.0596026 20.7914C-0.15894 20.0762 0.248344 19.3113 0.963576 19.0927L1.23179 19.0132C0.764901 17.6324 0.536424 16.202 0.536424 14.7417C0.536424 13.8974 0.615894 13.0629 0.774834 12.2384C0.60596 12.1291 0.456954 12 0.337748 11.8311C0.0298012 11.4139 -0.0695365 10.8775 0.0695363 10.3808C0.943709 7.40066 2.71192 4.82781 5.18543 2.9404C7.70861 1.01324 10.7285 0 13.9073 0C17.0861 0 20.106 1.01324 22.6291 2.9404C25.1026 4.82781 26.8709 7.40066 27.745 10.3808C27.894 10.8775 27.7947 11.4238 27.4768 11.8311C27.3576 11.9901 27.2086 12.1291 27.0397 12.2384C27.1987 13.0629 27.2781 13.9073 27.2781 14.7417C27.2781 16.202 27.0497 17.6324 26.5828 19.0132L26.851 19.0927C27.5662 19.3113 27.9735 20.0762 27.755 20.7914L25.5397 28.0331C25.3609 28.6093 24.8444 28.9967 24.2384 28.9967C24.0993 28.9967 23.9702 28.9768 23.8411 28.9371L22.0828 28.4007C21.9934 28.5795 21.8245 28.7086 21.6258 28.7483L19.6689 29.0762C19.4702 29.6523 18.9834 30 18.4272 30ZM19.4404 15.3775C19.4305 15.3775 19.4106 15.3874 19.4106 15.3974L15.606 27.8444L18.4172 28.7384L18.5762 28.3311L22.2616 16.2715L19.4404 15.3775ZM8.36424 15.3775L5.57285 16.2318L9.35762 28.7185L12.1887 27.8841L8.40397 15.3974L8.36424 15.3775L8.37417 15.2781L8.36424 15.3775ZM1.33113 20.3046L1.26159 20.4338L3.47682 27.6755C3.48675 27.7152 3.52649 27.745 3.57616 27.745L5.3543 27.2086L3.07947 19.7682L1.33113 20.3046ZM24.2185 27.7351H24.2285C24.2881 27.7351 24.3278 27.7053 24.3377 27.6656L26.553 20.4238C26.5728 20.3742 26.543 20.3146 26.4834 20.2947L24.7351 19.7682L22.4603 27.1987L24.2185 27.7351ZM20.0861 27.7252L21.0397 27.5662L23.7616 18.6656L23.0662 18L20.0861 27.7252ZM7.72848 27.7252L4.75828 17.9901L4.06291 18.6556L6.78477 27.5563L7.72848 27.7252ZM13.9073 1.26159C11.0066 1.26159 8.25497 2.18543 5.9404 3.94371C3.68543 5.66225 2.07616 8.01656 1.27152 10.7285C1.24172 10.8477 1.26159 10.9768 1.33113 11.0662C1.38079 11.1358 1.45033 11.1854 1.5298 11.2053C1.56954 11.2152 1.59934 11.2252 1.63907 11.2252C1.80795 11.2252 1.96689 11.106 2.01656 10.947C2.78146 8.39404 4.30132 6.18874 6.41722 4.56954C8.59272 2.9106 11.1755 2.04636 13.9073 2.04636C16.6391 2.04636 19.2219 2.92053 21.3974 4.56954C23.5132 6.18874 25.0331 8.39404 25.7881 10.957C25.8377 11.1258 25.9868 11.2351 26.1656 11.2351C26.2053 11.2351 26.2351 11.2351 26.2748 11.2152C26.4834 11.1556 26.6026 10.9371 26.543 10.7285C25.7384 8.00662 24.1291 5.66225 21.8742 3.94371C19.5596 2.18543 16.8079 1.26159 13.9073 1.26159Z" fill="#023F85"/>
</g>
<defs>
<clipPath id="clip0">
<rect width="27.8146" height="30" fill="white"/>
</clipPath>
</defs>
</svg>
