<svg width="113" height="52" viewBox="0 0 113 52" fill="none" xmlns="http://www.w3.org/2000/svg">
<path d="M11.351 13.226L108.719 7.89567L104.033 37.7865L3.91941 40.6143L11.351 13.226Z" fill="white"/>
<path d="M22.964 32.6848C22.901 32.7478 23.363 32.7268 23.804 32.6638L24.707 32.5588L24.833 26.9728L26.807 27.0988L27.248 32.4748L28.991 32.4328L29.033 17.8378H27.521L26.891 25.3768L24.665 25.2508L24.266 18.1528C23.993 18.1528 23.72 18.1528 23.489 18.1318C23.09 18.1318 22.67 18.1108 22.607 18.1108C22.481 18.1108 23.048 32.6008 22.964 32.6848ZM35.7422 18.0268C34.8392 17.9638 32.9072 17.9638 31.8152 17.9638L30.5342 32.6428H32.3402C32.6552 30.5638 32.6972 28.5688 33.0962 26.9728L34.9022 27.2458C35.2382 28.3588 35.5112 31.3198 35.6792 32.6428H37.4852L35.7422 18.0268ZM34.7342 25.3978L33.3272 25.2298L33.5372 20.8618L34.1462 20.8828L34.7342 25.3978ZM40.3188 25.8808L38.1558 32.6428L40.1088 32.9368L44.6868 18.1528L43.0068 17.9638L41.2848 22.7728L39.8148 17.7118L38.1558 18.0058L40.3188 25.8808ZM46.1983 18.0478L46.0723 32.6008L56.8453 32.5588L57.2863 17.9218L55.1023 17.8798L54.5353 30.5848L52.5613 30.7948V17.8798H50.4613L50.5033 30.6688L48.4033 30.7948L48.2563 17.9638L46.1983 18.0478ZM59.3253 32.6848C59.2623 32.7478 59.7243 32.7268 60.1653 32.6638L61.0683 32.5588L61.1943 26.9728L63.1683 27.0988L63.6093 32.4748L65.3523 32.4328L65.3943 17.8378H63.8823L63.2523 25.3768L61.0263 25.2508L60.6273 18.1528C60.3543 18.1528 60.0813 18.1528 59.8503 18.1318C59.4513 18.1318 59.0313 18.1108 58.9683 18.1108C58.8423 18.1108 59.4093 32.6008 59.3253 32.6848ZM73.9515 32.6428L74.1405 17.9638L72.1665 18.0478L69.2685 27.6448L69.0585 17.6698L67.0005 17.9218L67.2945 32.8108L69.4365 32.7268L72.1245 23.9698L71.8095 32.6848L73.9515 32.6428ZM75.732 18.0058L75.9 32.7688H77.748L77.79 26.3848L80.688 32.7268L82.347 31.4248L78.882 25.2928L82.662 19.2448L81.465 17.7958L77.664 23.9698L77.58 17.6698L75.732 18.0058ZM91.0658 32.6428L91.2548 17.9638L89.2808 18.0478L86.3828 27.6448L86.1728 17.6698L84.1148 17.9218L84.4088 32.8108L86.5508 32.7268L89.2388 23.9698L88.9238 32.6848L91.0658 32.6428Z" fill="#004F91"/>
</svg>
