<svg width="27" height="30" viewBox="0 0 27 30" fill="none" xmlns="http://www.w3.org/2000/svg">
<g clip-path="url(#clip0)">
<path d="M10.9531 30C9.21148 30 7.79202 28.5805 7.79202 26.8389V24.2416H2.55712C1.14772 24.2416 -0.00999451 23.094 -0.00999451 21.6745V2.56711C7.26078e-05 1.14765 1.14772 0 2.56719 0H14.6075C16.0169 0 17.1746 1.14765 17.1746 2.56711V21.6846C17.1746 23.094 16.0269 24.2517 14.6075 24.2517H9.37256V26.849C9.37256 27.7248 10.0773 28.4295 10.9531 28.4295H21.1611C22.037 28.4295 22.7417 27.7248 22.7417 26.849V18.5034H22.641C21.2316 18.5034 20.0739 17.3557 20.0739 15.9362V12.4832C20.0739 12.0805 20.3759 11.7383 20.7786 11.698L20.8692 11.6879V8.80872C20.8692 8.37584 21.2216 8.02349 21.6544 8.02349H25.3893C25.8222 8.02349 26.1746 8.37584 26.1746 8.80872V11.6879L26.2652 11.698C26.6679 11.7383 26.9699 12.0705 26.9699 12.4832V15.9362C26.9699 17.3456 25.8222 18.5034 24.4028 18.5034H24.3021V26.849C24.3021 28.5906 22.8826 30.0101 21.1511 30.0101H10.9531V30ZM2.56719 1.57047C2.02356 1.57047 1.58061 2.01342 1.58061 2.55705V21.6745C1.58061 22.2181 2.02356 22.6611 2.56719 22.6611H14.6075C15.1511 22.6611 15.594 22.2181 15.594 21.6745V2.56711C15.594 2.02349 15.1511 1.58054 14.6075 1.58054H2.56719V1.57047ZM21.6544 15.9362C21.6544 16.4799 22.0974 16.9228 22.641 16.9228H24.4229C24.9665 16.9228 25.4095 16.4799 25.4095 15.9362V13.2685H21.6544V15.9362ZM22.4497 11.698H24.6041V9.59396H22.4497V11.698Z" fill="#023F85"/>
<path d="M8.58726 12.9866C8.46645 12.9866 8.35572 12.9564 8.25504 12.906C7.86243 12.7148 7.69129 12.2517 7.88256 11.8591L9.04028 9.42282H6.89598C6.62417 9.42282 6.37249 9.29194 6.23155 9.0604C6.08055 8.83892 6.06041 8.55704 6.17115 8.31543L7.86243 4.58053C7.9933 4.29866 8.27518 4.11745 8.57719 4.11745C8.68793 4.11745 8.79867 4.13758 8.89934 4.18792C9.30202 4.36912 9.48323 4.84228 9.30202 5.2349L8.11411 7.85235H10.2785C10.5503 7.85235 10.802 7.99329 10.943 8.21476C11.0839 8.43624 11.104 8.72819 10.9933 8.9698L9.30202 12.5336C9.16108 12.8154 8.88927 12.9866 8.58726 12.9866Z" fill="#023F85"/>
<path d="M4.95302 20.547C4.52013 20.547 4.16779 20.1946 4.16779 19.7617V19.6007C4.16779 19.1678 4.52013 18.8154 4.95302 18.8154C5.38591 18.8154 5.73826 19.1678 5.73826 19.6007V19.7617C5.73826 20.1946 5.38591 20.547 4.95302 20.547Z" fill="#023F85"/>
<path d="M8.58725 20.547C8.15437 20.547 7.80202 20.1946 7.80202 19.7617V19.6007C7.80202 19.1678 8.15437 18.8154 8.58725 18.8154C9.02014 18.8154 9.37249 19.1678 9.37249 19.6007V19.7617C9.37249 20.1946 9.02014 20.547 8.58725 20.547Z" fill="#023F85"/>
<path d="M12.2114 20.547C11.7785 20.547 11.4262 20.1946 11.4262 19.7617V19.6007C11.4262 19.1678 11.7785 18.8154 12.2114 18.8154C12.6443 18.8154 12.9966 19.1678 12.9966 19.6007V19.7617C13.0067 20.1946 12.6544 20.547 12.2114 20.547Z" fill="#023F85"/>
</g>
<defs>
<clipPath id="clip0">
<rect width="26.9799" height="30" fill="white"/>
</clipPath>
</defs>
</svg>
