<svg width="141" height="46" viewBox="0 0 141 46" fill="none" xmlns="http://www.w3.org/2000/svg">
<path d="M7.5716 8.69408L138.741 6.94426L133.367 36.6101L1.8559 35.6733L7.5716 8.69408Z" fill="white"/>
<path d="M30.6538 14.3421C29.7508 14.2791 27.8188 14.2791 26.7268 14.2791L25.4458 28.9581H27.2518C27.5668 26.8791 27.6088 24.8841 28.0078 23.2881L29.8138 23.5611C30.1498 24.6741 30.4228 27.6351 30.5908 28.9581H32.3968L30.6538 14.3421ZM29.6458 21.7131L28.2388 21.5451L28.4488 17.1771L29.0578 17.1981L29.6458 21.7131ZM33.8516 14.3211L34.0196 29.0841H35.8676L35.9096 22.7001L38.8076 29.0421L40.4666 27.7401L37.0016 21.6081L40.7816 15.5601L39.5846 14.1111L35.7836 20.2851L35.6996 13.9851L33.8516 14.3211ZM42.2344 14.3211L42.4024 29.0841H44.2504L44.2924 22.7001L47.1904 29.0421L48.8494 27.7401L45.3844 21.6081L49.1644 15.5601L47.9674 14.1111L44.1664 20.2851L44.0824 13.9851L42.2344 14.3211ZM52.5702 22.1961L50.4072 28.9581L52.3602 29.2521L56.9382 14.4681L55.2582 14.2791L53.5362 19.0881L52.0662 14.0271L50.4072 14.3211L52.5702 22.1961ZM60.1718 28.9581L60.4238 18.7521L63.0068 24.0021H64.3718L66.5978 19.3611L66.7448 28.9581L68.6558 29.0841L68.0888 14.1951H66.3878L63.8048 21.2091L60.2138 14.1951L58.3238 14.4681L58.4498 28.9581H60.1718ZM72.1659 22.1961L70.0029 28.9581L71.9559 29.2521L76.5339 14.4681L74.8539 14.2791L73.1319 19.0881L71.6619 14.0271L70.0029 14.3211L72.1659 22.1961ZM78.3216 29.0001C79.9176 29.0001 81.7656 26.9421 81.8706 24.9471L81.9126 16.1271H84.0546L84.0966 29.1261H86.2806L85.8816 14.1951L79.9386 14.2371C79.9386 15.9591 79.9386 17.5551 79.9596 19.0041C79.9596 21.4821 79.9806 24.1491 79.9806 24.8841C79.9806 26.3961 78.7626 27.1731 77.9226 27.1731L76.8096 27.2151L76.6836 29.0421L78.3216 29.0001ZM89.9814 23.4981C89.3724 25.0101 88.4904 27.0261 87.8184 28.6641C88.0284 28.8741 89.0994 29.1261 89.3934 29.2521L91.9764 23.7291V28.9581H93.7194C93.7194 25.9971 94.3704 17.1981 94.2024 14.3421C93.3624 14.2791 91.4514 14.2791 90.4854 14.2791C89.4984 14.2791 87.9864 15.0141 87.9864 16.2741V20.7471C87.9864 21.9651 88.9314 22.9521 89.9814 23.4981ZM89.9184 20.7681C89.8344 20.3691 89.6244 16.9041 90.1704 16.3161C90.5274 15.9171 92.1444 15.8961 92.1444 16.0431C92.1444 16.7151 92.0184 21.9441 91.9764 21.9861C91.8924 22.0911 91.1784 22.1121 90.9684 22.0701C90.7584 22.0071 90.5484 21.9231 90.3594 21.8181C89.9604 21.5661 89.9814 21.1881 89.9184 20.7681ZM98.3096 16.3371V28.9791H100.368C100.368 24.8001 100.116 20.4741 100.116 16.0851H103.203V15.8121C103.203 15.5601 103.161 15.1821 103.14 14.8671L103.098 14.3001L95.7686 14.1741C95.7056 14.5731 95.7266 15.9591 95.7266 16.3371H98.3096ZM110.613 14.5941C110.34 14.4471 110.046 14.3421 109.71 14.2791L108.723 14.2371C108.114 14.2161 107.295 14.2161 106.392 14.2371C105.489 14.2581 105.069 14.7831 104.838 15.2871C104.712 15.5811 104.649 15.9171 104.628 16.2951L104.607 26.5011C104.544 27.7821 104.922 28.7271 106.266 28.9581C106.749 28.9581 107.211 28.9581 107.673 28.9791C108.45 29.0001 109.332 29.0211 109.899 29.0001C110.802 29.0001 111.432 28.0971 111.432 27.2151L111.474 22.4901C111.474 20.0331 111.516 17.2611 111.516 16.3371C111.516 15.3921 111.054 14.8671 110.613 14.5941ZM109.563 26.1441C109.521 26.3751 109.479 26.5851 109.416 26.7741C109.248 27.0891 108.765 27.3621 108.093 27.3621C106.707 27.3621 106.602 27.1731 106.602 26.1651C106.602 25.7031 106.644 16.9671 106.644 16.6521C106.644 15.6441 106.728 15.4551 108.114 15.4551C108.807 15.4551 109.164 15.4971 109.332 15.8121C109.395 16.0011 109.416 16.4631 109.437 16.6941C109.437 16.6941 109.521 18.3321 109.521 20.8941C109.521 22.9941 109.563 26.1441 109.563 26.1441ZM119.411 16.0431C119.159 13.5021 115.043 14.0271 113.069 14.2791L113.573 28.9581H115.337V23.3931C116.597 23.4561 119.243 22.5741 119.411 20.8521C119.579 19.2561 119.579 17.6601 119.411 16.0431ZM117.584 19.8651C117.5 20.2011 117.521 20.5161 117.143 20.7051C116.954 20.7891 116.744 20.8521 116.513 20.8941C116.303 20.9361 115.589 20.9151 115.505 20.8311C115.484 20.7891 115.358 16.6521 115.358 16.1061C115.358 16.0011 116.954 16.0221 117.332 16.3371C117.878 16.7991 117.647 19.5501 117.584 19.8651Z" fill="#004F91"/>
</svg>
