<svg width="35" height="30" viewBox="0 0 35 30" fill="none" xmlns="http://www.w3.org/2000/svg">
<g clip-path="url(#clip0)">
<path d="M32.29 12.61V12.13C32.29 10.5 30.96 9.17 29.32 9.17H25.98V4.11C25.98 2.48 24.65 1.15 23.01 1.14H11.56C9.93 1.14 8.6 2.47 8.6 4.11V9.17H5.26C3.63 9.17 2.3 10.5 2.29 12.13V12.61C1.02 12.66 0 13.71 0 15V24.17C0 25.46 1.02 26.51 2.29 26.56V27.04C2.29 28.67 3.62 30 5.26 30.01H29.33C30.96 30.01 32.29 28.68 32.3 27.04V26.56C33.57 26.51 34.59 25.46 34.59 24.17V15C34.58 13.71 33.57 12.66 32.29 12.61ZM32.29 25.21V13.96C32.82 14.01 33.24 14.46 33.24 15V24.17C33.24 24.71 32.82 25.16 32.29 25.21ZM22.35 4.78V9.17H12.23V4.78H22.35ZM23.02 3.44H11.56C11.19 3.44 10.89 3.74 10.89 4.11V9.17H9.94V4.11C9.94 3.22 10.67 2.49 11.56 2.49H23.02C23.91 2.49 24.64 3.22 24.64 4.11V9.17H23.7V4.11C23.7 3.74 23.39 3.44 23.02 3.44ZM28.75 14.9C28.38 14.9 28.08 15.2 28.08 15.57V28.65H6.5V15.57C6.5 15.2 6.2 14.9 5.83 14.9C5.46 14.9 5.16 15.2 5.16 15.57V28.65C4.31 28.6 3.64 27.89 3.64 27.03V12.13C3.64 11.27 4.31 10.56 5.16 10.51V12.7C5.16 13.07 5.46 13.37 5.83 13.37C6.2 13.37 6.5 13.07 6.5 12.7V10.51H28.08V12.7C28.08 13.07 28.38 13.37 28.75 13.37C29.12 13.37 29.42 13.07 29.42 12.7V10.51C30.27 10.56 30.94 11.27 30.94 12.13V27.03C30.94 27.89 30.27 28.6 29.42 28.65V15.57C29.43 15.2 29.12 14.9 28.75 14.9ZM2.29 13.96V25.21C1.76 25.16 1.34 24.71 1.34 24.17V15C1.35 14.46 1.76 14.01 2.29 13.96Z" fill="#023F85"/>
<path d="M17.29 11.46C12.81 11.46 9.17 15.1 9.17 19.58C9.17 24.06 12.81 27.7 17.29 27.7C21.77 27.7 25.41 24.06 25.41 19.58C25.41 15.11 21.77 11.47 17.29 11.46ZM17.29 26.36C13.55 26.36 10.51 23.32 10.51 19.58C10.51 15.84 13.55 12.8 17.29 12.8C21.03 12.8 24.07 15.84 24.07 19.58C24.07 23.32 21.03 26.36 17.29 26.36Z" fill="#023F85"/>
<path d="M15.57 13.75C15.2 13.75 14.9 14.05 14.9 14.42C14.9 14.79 15.2 15.09 15.57 15.09C15.94 15.09 16.24 14.79 16.24 14.42C16.25 14.06 15.94 13.75 15.57 13.75Z" fill="#023F85"/>
<path d="M13.85 15.47C13.48 15.47 13.18 15.77 13.18 16.14C13.18 16.51 13.48 16.81 13.85 16.81C14.22 16.81 14.52 16.51 14.52 16.14C14.53 15.78 14.22 15.47 13.85 15.47Z" fill="#023F85"/>
<path d="M17.29 15.47C16.92 15.47 16.62 15.77 16.62 16.14C16.62 16.51 16.92 16.81 17.29 16.81C17.66 16.81 17.96 16.51 17.96 16.14C17.96 15.78 17.66 15.47 17.29 15.47Z" fill="#023F85"/>
<path d="M20.73 15.47C20.36 15.47 20.06 15.77 20.06 16.14C20.06 16.51 20.36 16.81 20.73 16.81C21.1 16.81 21.4 16.51 21.4 16.14C21.4 15.78 21.1 15.47 20.73 15.47Z" fill="#023F85"/>
<path d="M13.85 18.91C13.48 18.91 13.18 19.21 13.18 19.58C13.18 19.95 13.48 20.25 13.85 20.25C14.22 20.25 14.52 19.95 14.52 19.58C14.53 19.21 14.22 18.91 13.85 18.91Z" fill="#023F85"/>
<path d="M17.29 18.91C16.92 18.91 16.62 19.21 16.62 19.58C16.62 19.95 16.92 20.25 17.29 20.25C17.66 20.25 17.96 19.95 17.96 19.58C17.96 19.21 17.66 18.91 17.29 18.91Z" fill="#023F85"/>
<path d="M20.73 18.91C20.36 18.91 20.06 19.21 20.06 19.58C20.06 19.95 20.36 20.25 20.73 20.25C21.1 20.25 21.4 19.95 21.4 19.58C21.4 19.21 21.1 18.91 20.73 18.91Z" fill="#023F85"/>
<path d="M13.85 22.35C13.48 22.35 13.18 22.65 13.18 23.02C13.18 23.39 13.48 23.69 13.85 23.69C14.22 23.69 14.52 23.39 14.52 23.02C14.53 22.65 14.22 22.35 13.85 22.35Z" fill="#023F85"/>
<path d="M17.29 22.35C16.92 22.35 16.62 22.65 16.62 23.02C16.62 23.39 16.92 23.69 17.29 23.69C17.66 23.69 17.96 23.39 17.96 23.02C17.96 22.65 17.66 22.35 17.29 22.35Z" fill="#023F85"/>
<path d="M20.73 22.35C20.36 22.35 20.06 22.65 20.06 23.02C20.06 23.39 20.36 23.69 20.73 23.69C21.1 23.69 21.4 23.39 21.4 23.02C21.4 22.65 21.1 22.35 20.73 22.35Z" fill="#023F85"/>
<path d="M19.01 13.75C18.64 13.75 18.34 14.05 18.34 14.42C18.34 14.79 18.64 15.09 19.01 15.09C19.38 15.09 19.68 14.79 19.68 14.42C19.68 14.06 19.38 13.75 19.01 13.75Z" fill="#023F85"/>
<path d="M15.57 24.07C15.2 24.07 14.9 24.37 14.9 24.74C14.9 25.11 15.2 25.41 15.57 25.41C15.94 25.41 16.24 25.11 16.24 24.74C16.25 24.37 15.94 24.07 15.57 24.07Z" fill="#023F85"/>
<path d="M19.01 24.07C18.64 24.07 18.34 24.37 18.34 24.74C18.34 25.11 18.64 25.41 19.01 25.41C19.38 25.41 19.68 25.11 19.68 24.74C19.68 24.37 19.38 24.07 19.01 24.07Z" fill="#023F85"/>
<path d="M15.57 17.19C15.2 17.19 14.9 17.49 14.9 17.86C14.9 18.23 15.2 18.53 15.57 18.53C15.94 18.53 16.24 18.23 16.24 17.86C16.25 17.49 15.94 17.19 15.57 17.19Z" fill="#023F85"/>
<path d="M12.13 17.19C11.76 17.19 11.46 17.49 11.46 17.86C11.46 18.23 11.76 18.53 12.13 18.53C12.5 18.53 12.8 18.23 12.8 17.86C12.81 17.49 12.51 17.19 12.13 17.19Z" fill="#023F85"/>
<path d="M22.45 18.54C22.82 18.54 23.12 18.24 23.12 17.87C23.12 17.5 22.82 17.2 22.45 17.2C22.08 17.2 21.78 17.5 21.78 17.87C21.78 18.24 22.08 18.54 22.45 18.54Z" fill="#023F85"/>
<path d="M19.01 17.19C18.64 17.19 18.34 17.49 18.34 17.86C18.34 18.23 18.64 18.53 19.01 18.53C19.38 18.53 19.68 18.23 19.68 17.86C19.68 17.49 19.38 17.19 19.01 17.19Z" fill="#023F85"/>
<path d="M15.57 20.63C15.2 20.63 14.9 20.93 14.9 21.3C14.9 21.67 15.2 21.97 15.57 21.97C15.94 21.97 16.24 21.67 16.24 21.3C16.25 20.93 15.94 20.63 15.57 20.63Z" fill="#023F85"/>
<path d="M12.13 20.63C11.76 20.63 11.46 20.93 11.46 21.3C11.46 21.67 11.76 21.97 12.13 21.97C12.5 21.97 12.8 21.67 12.8 21.3C12.81 20.93 12.51 20.63 12.13 20.63Z" fill="#023F85"/>
<path d="M22.45 20.63C22.08 20.63 21.78 20.93 21.78 21.3C21.78 21.67 22.08 21.97 22.45 21.97C22.82 21.97 23.12 21.67 23.12 21.3C23.12 20.93 22.82 20.63 22.45 20.63Z" fill="#023F85"/>
<path d="M19.01 20.63C18.64 20.63 18.34 20.93 18.34 21.3C18.34 21.67 18.64 21.97 19.01 21.97C19.38 21.97 19.68 21.67 19.68 21.3C19.68 20.93 19.38 20.63 19.01 20.63Z" fill="#023F85"/>
<path d="M0.67 7.65C1.04 7.65 1.34 7.35 1.34 6.98C1.34 3.88 3.87 1.35 6.97 1.35C7.34 1.35 7.64 1.05 7.64 0.68C7.65 0.3 7.35 0 6.98 0C3.13 0 0 3.13 0 6.98C0 7.16 0.07 7.33 0.2 7.46C0.32 7.58 0.49 7.65 0.67 7.65Z" fill="#023F85"/>
<path d="M6.97999 2.28999C4.39999 2.29999 2.29999 4.39999 2.28999 6.97999C2.28999 7.34999 2.58999 7.64999 2.95999 7.64999C3.32999 7.64999 3.62999 7.34999 3.62999 6.97999C3.62999 5.13999 5.12999 3.63999 6.96999 3.63999C7.33999 3.63999 7.63999 3.33999 7.63999 2.96999C7.64999 2.58999 7.34999 2.28999 6.97999 2.28999Z" fill="#023F85"/>
<path d="M6.98 4.58C5.66 4.58 4.59 5.65 4.59 6.97C4.59 7.34 4.89 7.64 5.26 7.64C5.63 7.64 5.93 7.34 5.93 6.97C5.93 6.39 6.4 5.92 6.98 5.92C7.35 5.92 7.65 5.62 7.65 5.25C7.65 4.89 7.35 4.58 6.98 4.58Z" fill="#023F85"/>
<path d="M27.61 1.35C30.71 1.35 33.24 3.88 33.24 6.98C33.24 7.35 33.54 7.65 33.91 7.65C34.28 7.65 34.58 7.35 34.58 6.98C34.58 3.14 31.45 0.01 27.6 0C27.23 0 26.93 0.3 26.93 0.67C26.94 1.04 27.24 1.35 27.61 1.35Z" fill="#023F85"/>
<path d="M27.61 3.64C29.45 3.64 30.95 5.14 30.95 6.98C30.95 7.35 31.25 7.65 31.62 7.65C31.99 7.65 32.29 7.35 32.29 6.98C32.29 4.4 30.19 2.3 27.61 2.3C27.24 2.3 26.94 2.6 26.94 2.97C26.94 3.34 27.24 3.64 27.61 3.64Z" fill="#023F85"/>
<path d="M27.61 5.93C28.19 5.93 28.66 6.4 28.66 6.98C28.66 7.35 28.96 7.65 29.33 7.65C29.7 7.65 30 7.35 30 6.98C30 5.66 28.93 4.59 27.61 4.59C27.24 4.59 26.94 4.89 26.94 5.26C26.94 5.63 27.24 5.93 27.61 5.93Z" fill="#023F85"/>
</g>
<defs>
<clipPath id="clip0">
<rect width="34.58" height="30" fill="white"/>
</clipPath>
</defs>
</svg>
