<svg width="190" height="50" viewBox="0 0 190 50" fill="none" xmlns="http://www.w3.org/2000/svg">
<path d="M179.681 37.6447L1.86633 41.3484L9.61272 11.5776L187.849 10.5577L179.681 37.6447Z" fill="white"/>
<path d="M16.37 21.1935L19.835 21.2145C19.688 25.9185 19.625 30.2445 19.604 34.2765L21.347 34.2345L21.389 19.6395L14.669 19.3875C14.543 19.3875 15.11 33.8775 15.026 33.9615C14.963 34.0245 15.425 34.0035 15.866 33.9405L16.769 33.8355L16.37 21.1935ZM29.0363 19.5555C28.7633 19.4085 28.4693 19.3035 28.1333 19.2405L27.1463 19.1985C26.5373 19.1775 25.7183 19.1775 24.8153 19.1985C23.9123 19.2195 23.4923 19.7445 23.2613 20.2485C23.1353 20.5425 23.0723 20.8785 23.0513 21.2565L23.0303 31.4625C22.9673 32.7435 23.3453 33.6885 24.6893 33.9195C25.1723 33.9195 25.6343 33.9195 26.0963 33.9405C26.8733 33.9615 27.7553 33.9825 28.3223 33.9615C29.2253 33.9615 29.8553 33.0585 29.8553 32.1765L29.8973 27.4515C29.8973 24.9945 29.9393 22.2225 29.9393 21.2985C29.9393 20.3535 29.4773 19.8285 29.0363 19.5555ZM27.9863 31.1055C27.9443 31.3365 27.9023 31.5465 27.8393 31.7355C27.6713 32.0505 27.1883 32.3235 26.5163 32.3235C25.1303 32.3235 25.0253 32.1345 25.0253 31.1265C25.0253 30.6645 25.0673 21.9285 25.0673 21.6135C25.0673 20.6055 25.1513 20.4165 26.5373 20.4165C27.2303 20.4165 27.5873 20.4585 27.7553 20.7735C27.8183 20.9625 27.8393 21.4245 27.8603 21.6555C27.8603 21.6555 27.9443 23.2935 27.9443 25.8555C27.9443 27.9555 27.9863 31.1055 27.9863 31.1055ZM37.8352 21.0045C37.5832 18.4635 33.4672 18.9885 31.4932 19.2405L31.9972 33.9195H33.7612V28.3545C35.0212 28.4175 37.6672 27.5355 37.8352 25.8135C38.0032 24.2175 38.0032 22.6215 37.8352 21.0045ZM36.0082 24.8265C35.9242 25.1625 35.9452 25.4775 35.5672 25.6665C35.3782 25.7505 35.1682 25.8135 34.9372 25.8555C34.7272 25.8975 34.0132 25.8765 33.9292 25.7925C33.9082 25.7505 33.7822 21.6135 33.7822 21.0675C33.7822 20.9625 35.3782 20.9835 35.7562 21.2985C36.3022 21.7605 36.0712 24.5115 36.0082 24.8265ZM41.7588 21.2985V33.9405H43.8168C43.8168 29.7615 43.5648 25.4355 43.5648 21.0465H46.6518V20.7735C46.6518 20.5215 46.6098 20.1435 46.5888 19.8285L46.5468 19.2615L39.2178 19.1355C39.1548 19.5345 39.1758 20.9205 39.1758 21.2985H41.7588ZM53.1167 19.3035C52.2137 19.2405 50.2817 19.2405 49.1897 19.2405L47.9087 33.9195H49.7147C50.0297 31.8405 50.0717 29.8455 50.4707 28.2495L52.2767 28.5225C52.6127 29.6355 52.8857 32.5965 53.0537 33.9195H54.8597L53.1167 19.3035ZM52.1087 26.6745L50.7017 26.5065L50.9117 22.1385L51.5207 22.1595L52.1087 26.6745ZM58.4629 21.2985V33.9405H60.5209C60.5209 29.7615 60.2689 25.4355 60.2689 21.0465H63.3559V20.7735C63.3559 20.5215 63.3139 20.1435 63.2929 19.8285L63.2509 19.2615L55.9219 19.1355C55.8589 19.5345 55.8799 20.9205 55.8799 21.2985H58.4629ZM71.6688 33.9195L71.8578 19.2405L69.8838 19.3245L66.9858 28.9215L66.7758 18.9465L64.7178 19.1985L65.0118 34.0875L67.1538 34.0035L69.8418 25.2465L69.5268 33.9615L71.6688 33.9195ZM79.5603 27.1575C79.2873 27.0105 78.9933 26.9055 78.6363 26.8425L75.9693 26.2545C76.1163 26.2755 76.2843 26.2755 76.4943 26.2755C76.8513 26.2755 77.3763 26.2755 78.1323 26.2125C78.8673 26.1495 79.3503 25.8135 79.6233 25.4985C79.7703 25.3095 79.8963 25.0995 79.9803 24.8685L80.0433 23.7345C80.0643 23.0415 80.0643 22.0965 79.9803 21.0675C79.8753 20.0595 79.2873 19.5765 78.7203 19.3455C78.3843 19.1985 78.0063 19.1355 77.5863 19.1565C76.3263 19.0935 74.9403 19.1775 73.6173 19.3665C73.4283 23.9655 73.4283 28.6485 73.8273 34.0875L75.6963 34.0035C76.7253 33.9405 77.8803 33.9195 78.6153 33.8565C79.3083 33.8355 79.6863 33.6045 79.8753 33.3735C79.9803 33.2475 80.0643 33.1005 80.0853 32.9535C80.1273 32.3865 80.1693 31.8405 80.2323 31.2945C80.3163 30.3705 80.3793 29.2785 80.4423 28.5435C80.5053 27.8085 80.0433 27.4095 79.5603 27.1575ZM75.9693 20.1225C75.9903 20.1225 75.9903 20.1015 76.0113 20.1015C76.5363 19.9965 77.2713 20.2485 77.3133 20.8575C77.3343 21.0465 77.3763 22.9785 77.3133 23.4615C77.2713 23.8185 77.0403 24.4275 76.6623 24.6165C76.4733 24.7005 75.9273 24.7215 75.9273 24.7215C75.9273 24.7215 75.9483 20.1225 75.9693 20.1225ZM77.6703 30.0765C77.6493 30.4545 77.6073 30.8325 77.5653 31.2105C77.5233 31.6305 77.4603 32.0925 77.2503 32.4495C77.0403 32.7855 75.9483 32.7645 75.9483 32.7645C75.9483 32.7645 75.7593 28.6695 75.9273 27.8715C75.9483 27.8295 76.8303 27.8505 77.0823 28.0605C77.6283 28.5435 77.6913 29.3835 77.6703 30.0765ZM82.4782 33.9615C82.4152 34.0245 82.8772 34.0035 83.3182 33.9405L84.2212 33.8355L84.3472 28.2495L86.3212 28.3755L86.7622 33.7515L88.5052 33.7095L88.5472 19.1145H87.0352L86.4052 26.6535L84.1792 26.5275L83.7802 19.4295C83.5072 19.4295 83.2342 19.4295 83.0032 19.4085C82.6042 19.4085 82.1842 19.3875 82.1212 19.3875C81.9952 19.3875 82.5622 33.8775 82.4782 33.9615ZM95.2564 19.3035C94.3534 19.2405 92.4214 19.2405 91.3294 19.2405L90.0484 33.9195H91.8544C92.1694 31.8405 92.2114 29.8455 92.6104 28.2495L94.4164 28.5225C94.7524 29.6355 95.0254 32.5965 95.1934 33.9195H96.9994L95.2564 19.3035ZM94.2484 26.6745L92.8414 26.5065L93.0514 22.1385L93.6604 22.1595L94.2484 26.6745ZM100.575 28.4595C99.9662 29.9715 99.0842 31.9875 98.4122 33.6255C98.6222 33.8355 99.6932 34.0875 99.9872 34.2135L102.57 28.6905V33.9195H104.313C104.313 30.9585 104.964 22.1595 104.796 19.3035C103.956 19.2405 102.045 19.2405 101.079 19.2405C100.092 19.2405 98.5802 19.9755 98.5802 21.2355V25.7085C98.5802 26.9265 99.5252 27.9135 100.575 28.4595ZM100.512 25.7295C100.428 25.3305 100.218 21.8655 100.764 21.2775C101.121 20.8785 102.738 20.8575 102.738 21.0045C102.738 21.6765 102.612 26.9055 102.57 26.9475C102.486 27.0525 101.772 27.0735 101.562 27.0315C101.352 26.9685 101.142 26.8845 100.953 26.7795C100.554 26.5275 100.575 26.1495 100.512 25.7295ZM112.738 19.2825L112.906 34.0455H114.754L114.796 27.6615L117.694 34.0035L119.353 32.7015L115.888 26.5695L119.668 20.5215L118.471 19.0725L114.67 25.2465L114.586 18.9465L112.738 19.2825ZM127.169 19.5555C126.896 19.4085 126.602 19.3035 126.266 19.2405L125.279 19.1985C124.67 19.1775 123.851 19.1775 122.948 19.1985C122.045 19.2195 121.625 19.7445 121.394 20.2485C121.268 20.5425 121.205 20.8785 121.184 21.2565L121.163 31.4625C121.1 32.7435 121.478 33.6885 122.822 33.9195C123.305 33.9195 123.767 33.9195 124.229 33.9405C125.006 33.9615 125.888 33.9825 126.455 33.9615C127.358 33.9615 127.988 33.0585 127.988 32.1765L128.03 27.4515C128.03 24.9945 128.072 22.2225 128.072 21.2985C128.072 20.3535 127.61 19.8285 127.169 19.5555ZM126.119 31.1055C126.077 31.3365 126.035 31.5465 125.972 31.7355C125.804 32.0505 125.321 32.3235 124.649 32.3235C123.263 32.3235 123.158 32.1345 123.158 31.1265C123.158 30.6645 123.2 21.9285 123.2 21.6135C123.2 20.6055 123.284 20.4165 124.67 20.4165C125.363 20.4165 125.72 20.4585 125.888 20.7735C125.951 20.9625 125.972 21.4245 125.993 21.6555C125.993 21.6555 126.077 23.2935 126.077 25.8555C126.077 27.9555 126.119 31.1055 126.119 31.1055ZM131.096 33.9615C132.692 33.9615 134.54 31.9035 134.645 29.9085L134.687 21.0885H136.829L136.871 34.0875H139.055L138.656 19.1565L132.713 19.1985C132.713 20.9205 132.713 22.5165 132.734 23.9655C132.734 26.4435 132.755 29.1105 132.755 29.8455C132.755 31.3575 131.537 32.1345 130.697 32.1345L129.584 32.1765L129.458 34.0035L131.096 33.9615ZM146.683 19.5555C146.41 19.4085 146.116 19.3035 145.78 19.2405L144.793 19.1985C144.184 19.1775 143.365 19.1775 142.462 19.1985C141.559 19.2195 141.139 19.7445 140.908 20.2485C140.782 20.5425 140.719 20.8785 140.698 21.2565L140.677 31.4625C140.614 32.7435 140.992 33.6885 142.336 33.9195C142.819 33.9195 143.281 33.9195 143.743 33.9405C144.52 33.9615 145.402 33.9825 145.969 33.9615C146.872 33.9615 147.502 33.0585 147.502 32.1765L147.544 27.4515C147.544 24.9945 147.586 22.2225 147.586 21.2985C147.586 20.3535 147.124 19.8285 146.683 19.5555ZM145.633 31.1055C145.591 31.3365 145.549 31.5465 145.486 31.7355C145.318 32.0505 144.835 32.3235 144.163 32.3235C142.777 32.3235 142.672 32.1345 142.672 31.1265C142.672 30.6645 142.714 21.9285 142.714 21.6135C142.714 20.6055 142.798 20.4165 144.184 20.4165C144.877 20.4165 145.234 20.4585 145.402 20.7735C145.465 20.9625 145.486 21.4245 145.507 21.6555C145.507 21.6555 145.591 23.2935 145.591 25.8555C145.591 27.9555 145.633 31.1055 145.633 31.1055ZM149.623 33.9615C149.56 34.0245 150.022 34.0035 150.463 33.9405L151.366 33.8355L151.492 28.2495L153.466 28.3755L153.907 33.7515L155.65 33.7095L155.692 19.1145H154.18L153.55 26.6535L151.324 26.5275L150.925 19.4295C150.652 19.4295 150.379 19.4295 150.148 19.4085C149.749 19.4085 149.329 19.3875 149.266 19.3875C149.14 19.3875 149.707 33.8775 149.623 33.9615ZM157.298 19.2825L157.466 34.0455H159.314L159.356 27.6615L162.254 34.0035L163.913 32.7015L160.448 26.5695L164.228 20.5215L163.031 19.0725L159.23 25.2465L159.146 18.9465L157.298 19.2825ZM170.784 19.3035C169.881 19.2405 167.949 19.2405 166.857 19.2405L165.576 33.9195H167.382C167.697 31.8405 167.739 29.8455 168.138 28.2495L169.944 28.5225C170.28 29.6355 170.553 32.5965 170.721 33.9195H172.527L170.784 19.3035ZM169.776 26.6745L168.369 26.5065L168.579 22.1385L169.188 22.1595L169.776 26.6745Z" fill="#004F91"/>
</svg>
