<svg width="113" height="52" viewBox="0 0 113 52" fill="none" xmlns="http://www.w3.org/2000/svg">
<path d="M11.351 13.226L108.719 7.89569L104.033 37.7866L3.91941 40.6144L11.351 13.226Z" fill="white"/>
<path d="M29.843 18.3C29.297 18.3 26.903 18.636 25.286 19.035C24.467 19.224 24.068 19.602 23.837 19.917C23.711 20.106 23.648 20.316 23.627 20.526L23.375 30.543C23.543 32.37 24.572 33.189 26.483 33.021L30.179 32.685L30.053 30.921C29.633 30.984 29.234 31.026 28.835 31.068C28.163 31.131 27.344 31.194 26.84 31.194C25.811 31.194 25.664 30.9 25.391 30.459C25.139 29.976 25.118 23.886 25.202 22.437C25.265 21.702 25.517 21.345 25.769 21.156C25.916 21.051 26.084 20.988 26.273 20.967L29.738 20.547L29.843 18.3ZM33.5253 33L33.7773 22.794L36.3603 28.044H37.7253L39.9513 23.403L40.0983 33L42.0093 33.126L41.4423 18.237H39.7413L37.1583 25.251L33.5673 18.237L31.6773 18.51L31.8033 33H33.5253ZM48.6695 18.384C47.7665 18.321 45.8345 18.321 44.7425 18.321L43.4615 33H45.2675C45.5825 30.921 45.6245 28.926 46.0235 27.33L47.8295 27.603C48.1655 28.716 48.4385 31.677 48.6065 33H50.4125L48.6695 18.384ZM47.6615 25.755L46.2545 25.587L46.4645 21.219L47.0735 21.24L47.6615 25.755ZM58.1672 20.085C57.9152 17.544 53.7992 18.069 51.8252 18.321L52.3292 33H54.0932V27.435C55.3532 27.498 57.9992 26.616 58.1672 24.894C58.3352 23.298 58.3352 21.702 58.1672 20.085ZM56.3402 23.907C56.2562 24.243 56.2772 24.558 55.8992 24.747C55.7102 24.831 55.5002 24.894 55.2692 24.936C55.0592 24.978 54.3452 24.957 54.2612 24.873C54.2402 24.831 54.1142 20.694 54.1142 20.148C54.1142 20.043 55.7102 20.064 56.0882 20.379C56.6342 20.841 56.4032 23.592 56.3402 23.907ZM62.0908 20.379V33.021H64.1488C64.1488 28.842 63.8968 24.516 63.8968 20.127H66.9838V19.854C66.9838 19.602 66.9418 19.224 66.9208 18.909L66.8788 18.342L59.5498 18.216C59.4868 18.615 59.5078 20.001 59.5078 20.379H62.0908ZM75.982 23.193C75.982 21.66 74.848 20.673 73 20.904L72.937 18.321H70.942L70.9 21.093C70.501 21.072 69.136 21.135 68.842 21.24C68.317 21.429 67.813 21.87 67.813 22.878V27.393C67.792 27.876 67.834 28.317 67.981 28.695C68.212 29.346 69.766 29.997 70.942 29.976L70.879 31.467C70.858 31.866 70.837 32.223 70.837 32.496C70.816 32.643 70.816 32.811 70.816 32.958C70.879 32.958 71.32 32.979 71.74 33L72.58 33.042L72.79 29.976C73.189 30.039 74.512 29.997 74.827 29.85C75.352 29.64 75.94 28.884 75.94 27.351C76.003 24.18 75.982 23.256 75.982 23.193ZM70.984 28.044C70.837 28.191 69.808 28.17 69.787 27.96C69.766 27.855 69.766 23.151 69.766 23.151C70.018 23.046 70.837 23.025 70.921 23.109C71.026 23.235 70.984 27.771 70.984 28.044ZM73.966 27.981C73.924 28.065 73.861 28.128 73.777 28.17C73.735 28.212 72.937 28.17 72.937 28.086C72.937 27.96 73.042 23.067 73.063 23.046C73.063 23.046 73.924 22.899 73.987 23.214C74.029 23.424 74.029 23.634 74.029 23.823C74.029 24.096 74.071 27.813 73.966 27.981ZM83.5559 18.636C83.2829 18.489 82.9889 18.384 82.6529 18.321L81.6659 18.279C81.0569 18.258 80.2379 18.258 79.3349 18.279C78.4319 18.3 78.0119 18.825 77.7809 19.329C77.6549 19.623 77.5919 19.959 77.5709 20.337L77.5499 30.543C77.4869 31.824 77.8649 32.769 79.2089 33C79.6919 33 80.1539 33 80.6159 33.021C81.3929 33.042 82.2749 33.063 82.8419 33.042C83.7449 33.042 84.3749 32.139 84.3749 31.257L84.4169 26.532C84.4169 24.075 84.4589 21.303 84.4589 20.379C84.4589 19.434 83.9969 18.909 83.5559 18.636ZM82.5059 30.186C82.4639 30.417 82.4219 30.627 82.3589 30.816C82.1909 31.131 81.7079 31.404 81.0359 31.404C79.6499 31.404 79.5449 31.215 79.5449 30.207C79.5449 29.745 79.5869 21.009 79.5869 20.694C79.5869 19.686 79.6709 19.497 81.0569 19.497C81.7499 19.497 82.1069 19.539 82.2749 19.854C82.3379 20.043 82.3589 20.505 82.3799 20.736C82.3799 20.736 82.4639 22.374 82.4639 24.936C82.4639 27.036 82.5059 30.186 82.5059 30.186ZM86.4957 33.042C86.4327 33.105 86.8947 33.084 87.3357 33.021L88.2387 32.916L88.3647 27.33L90.3387 27.456L90.7797 32.832L92.5227 32.79L92.5647 18.195H91.0527L90.4227 25.734L88.1967 25.608L87.7977 18.51C87.5247 18.51 87.2517 18.51 87.0207 18.489C86.6217 18.489 86.2017 18.468 86.1387 18.468C86.0127 18.468 86.5797 32.958 86.4957 33.042Z" fill="#004F91"/>
</svg>
