<svg width="107" height="53" viewBox="0 0 107 53" fill="none" xmlns="http://www.w3.org/2000/svg">
<path d="M95.4851 39.1356L4.04565 43.3005L8.82499 13.4681L102.808 11.8384L95.4851 39.1356Z" fill="white"/>
<path d="M23.7484 21.9918L27.2134 22.0128C27.0664 26.7168 27.0034 31.0428 26.9824 35.0748L28.7254 35.0328L28.7674 20.4378L22.0474 20.1858C21.9214 20.1858 22.4884 34.6758 22.4044 34.7598C22.3414 34.8228 22.8034 34.8018 23.2444 34.7388L24.1474 34.6338L23.7484 21.9918ZM31.7948 34.7598C33.3908 34.7598 35.2388 32.7018 35.3438 30.7068L35.3858 21.8868H37.5278L37.5698 34.8858H39.7538L39.3548 19.9548L33.4118 19.9968C33.4118 21.7188 33.4118 23.3148 33.4328 24.7638C33.4328 27.2418 33.4538 29.9088 33.4538 30.6438C33.4538 32.1558 32.2358 32.9328 31.3958 32.9328L30.2828 32.9748L30.1568 34.8018L31.7948 34.7598ZM46.4366 20.1018C45.5336 20.0388 43.6016 20.0388 42.5096 20.0388L41.2286 34.7178H43.0346C43.3496 32.6388 43.3916 30.6438 43.7906 29.0478L45.5966 29.3208C45.9326 30.4338 46.2056 33.3948 46.3736 34.7178H48.1796L46.4366 20.1018ZM45.4286 27.4728L44.0216 27.3048L44.2316 22.9368L44.8406 22.9578L45.4286 27.4728ZM50.0753 34.7598C50.0123 34.8228 50.4743 34.8018 50.9153 34.7388L51.8183 34.6338L51.9443 29.0478L53.9183 29.1738L54.3593 34.5498L56.1023 34.5078L56.1443 19.9128H54.6323L54.0023 27.4518L51.7763 27.3258L51.3773 20.2278C51.1043 20.2278 50.8313 20.2278 50.6003 20.2068C50.2013 20.2068 49.7813 20.1858 49.7183 20.1858C49.5923 20.1858 50.1593 34.6758 50.0753 34.7598ZM57.8975 20.1228L57.7715 34.6758L68.5445 34.6338L68.9855 19.9968L66.8015 19.9548L66.2345 32.6598L64.2605 32.8698V19.9548H62.1605L62.2025 32.7438L60.1025 32.8698L59.9555 20.0388L57.8975 20.1228ZM70.8776 34.7178H77.1776V33.1428H72.9146C72.8936 32.3238 72.7046 31.0638 72.7046 30.2448V29.9928L76.6526 29.4678V27.8928H72.7046C72.6416 27.3048 72.3476 22.9998 72.4526 21.5928H77.1776V20.0178C75.0776 20.0178 72.6836 19.9128 70.5836 20.0178L70.8776 34.7178ZM81.0122 22.0968V34.7388H83.0702C83.0702 30.5598 82.8182 26.2338 82.8182 21.8448H85.9052V21.5718C85.9052 21.3198 85.8632 20.9418 85.8422 20.6268L85.8002 20.0598L78.4712 19.9338C78.4082 20.3328 78.4292 21.7188 78.4292 22.0968H81.0122Z" fill="#004F91"/>
</svg>
